<svg xmlns="http://www.w3.org/2000/svg" version="1.1" width="600px" height="600px" viewBox="0 0 200 200" style="overflow:hidden!important;"><g id="svga-group-wrapper"><g id="svga-group-backs-single"></g><g id="svga-group-humanwrap-move" transform="matrix(1,0,0,1,0,-6)"><g id="svga-group-humanwrap" transform="matrix(0.8499995000000001,0,0,0.8499995000000001,14.97755227104662,19.272955669057836)"><g id="svga-group-hair-back-move" transform="matrix(0.9999999999999999,-2.7755575615628914e-17,2.7755575615628914e-17,0.9999999999999999,1.4210854715202004e-14,2.842170943040401e-14)"><g id="svga-group-hair-back" transform="matrix(0.9999999,0,0,0.9999999,0,0)"><path id="SvgjsPath10441" d="M58.2 108.5s4.7 23.8 2.2 38-2.7 18.4-6 23.8-5 6.7-8.2 9.9c-3.2 3.2 1.7 15.4 1.7 15.4l109.7-2.2s-7.4-10.7-12.2-17.1c-4.7-6.4-6.2-8.9-7.2-17.1s.7-50.4.7-50.4l-69-2.7-11.7 2.4z" fill="#0b1117" stroke-width="none" opacity="1" stroke="none"></path><path id="SvgjsPath10442" d="M76.7 138.9c0-.3-.5-.3-.5 0 0 1.4-.1 2.7-.2 4.1 0-3-.1-6-.3-9 0-.1-.1-.2-.2-.2 0-.8 0-1.6-.1-2.3 0-.3-.4-.3-.4 0-.2 14.5-2.8 28.2-6.4 42.2-.1.4.4.5.6.2 2.9-7.7 4.7-16.1 5.7-24.4-.7 8.7-2.2 17.2-4.3 25.8-.1.3.4.4.4.1.3-.8.5-1.6.8-2.4 0 .3.4.3.5 0 3.1-10.9 4.7-22.9 4.4-34.1zm.1.2c.8 10.3-.2 20.1-1.3 30.3 0 .4.6.4.6.1 2.3-9.9 2.2-20.4 1.2-30.4 0-.4-.6-.4-.5 0zm-4.9 12.5c.7-4.8 1.1-9.7 1.2-14.5 0-.2-.2-.3-.4-.2v-2c0-.3-.4-.3-.4 0-.1 13.1-2.6 25.6-6.3 38.1 0 .1 0 .2.1.2l-.3 1.2c-.1.3.4.5.5.1 1.5-4 2.8-8.2 3.7-12.4.8-3.3 1.5-6.9 1.9-10.5zm-.2-21.5c-1.1 15.6-4.9 30.4-9.1 45.4-.1.3.3.4.4.1 5.9-14.3 8.2-30.1 9-45.5.1-.3-.3-.3-.3 0zm-2.7-1.4c0-.2-.4-.2-.4 0 .2 6.8-.2 13.4-1.2 19.8.5-4.8.5-9.6.1-14.4.1-2 .2-3.9.3-5.9 0-.3-.4-.3-.4 0 0 .9-.1 1.7-.2 2.6-.1-.1-.3-.1-.3 0 .1.6.1 1.3.1 1.9-.3 3.4-.7 6.7-1.2 10 .7-5.9.8-12 .2-17.9 0-.2-.4-.2-.4 0 .3 7-.2 13.8-1.2 20.4.9-6.9 1.1-13.9.6-20.8 0-.2-.3-.2-.3 0 .6 13.9-1.5 27.1-5.8 39.9 1.2-4.4 2.1-8.9 2.9-12.9 2.2-11.6 2.6-23.4-.7-34.8-.1-.2-.5-.1-.4.1 2.8 11.4 2.5 23 .3 34.5-2 10.3-4.5 22.4-11.9 30.2-.2.3.1.6.4.4 1.4-1.3 2.6-2.7 3.7-4.3-1 1.7-2 3.4-3.1 5.1-.1.2.2.4.3.2.8-1.1 1.5-2.2 2.2-3.4 0 .1-.1.2-.2.3-1.1 1.9-2.3 3.8-3.6 5.7-.2.3.2.6.5.4 11-13.2 16.1-30.2 17.8-47.2-.1 15.5-4.2 29.9-11.5 43.9-.1.2.2.4.3.2 1.1-1.8 2.2-3.6 3.2-5.5-.5 1.2-1.1 2.5-1.6 3.7-.2.3.3.6.5.3 8.8-15.9 12.3-34.5 11-52.5zm54.7 6.6c0-.3-.5-.3-.5 0-.9 14.9-1.7 31.7 5.7 45.3.1.3.6.1.5-.2-6-14.7-6.1-29.6-5.7-45.1zm4.7 34.3c.1.2.4.1.3-.1-1.6-5-2.7-10-3.5-15.1-.5-5.3-.4-10.6.2-16.1 0-.3-.5-.3-.5 0-.2 1.7-.4 3.5-.5 5.3V141c0-.2-.3-.2-.4 0-.2 3.4-.1 6.8.2 10.1.2 10.2 2.2 20.5 6.6 29.7.1.3.6.1.5-.2-1.8-5-3.2-10-4.3-15 .4 1.2.9 2.6 1.4 4zm.5-8.4c-1-8.9-1.1-17.7 0-26.9 0-.2-.3-.2-.3 0-.9 5-1.4 10.1-1.5 15.2-.3-4.5-.2-9.1.4-13.8 0-.2-.4-.3-.4-.1-.4 3-.7 6-.8 9-.1-2.4 0-4.9.2-7.4 0-.3-.4-.2-.4 0-1.2 10-.6 20.6 2.5 30.3.6 3.1 1.3 6.2 2.3 9.2.1.3.6.2.5-.1-.4-1.8-.7-3.6-1-5.4v-.1c0-.1 0-.2-.1-.2-.1-.4-.1-.7-.2-1.1 1.3 3.7 3 7.3 5 10.7.2.3.7 0 .5-.3-2.9-6.1-5.2-12.5-6.7-19zm2.3-32.9c0-.3-.4-.4-.4-.1-3.2 16.9-.9 35.1 7.5 50.3.1.3.5 0 .4-.2-7.2-15.9-10.1-32.6-7.5-50zm2.1-.5c0-.2-.3-.2-.4-.1-2.9 18.2-.3 39.9 8.8 56.2.1.2.5.1.4-.2-3.2-8.8-6.4-17.3-8-26.6-1.6-9.7-1.6-19.4-.8-29.3zm9.8 50.6c-3-7.3-5.3-14.6-6.8-22-1.2-9.4-1.4-19-.6-28.6 0-.2-.4-.2-.4 0-.6 5.3-.8 10.7-.8 16-.4-5.8-.3-11.6.4-17.6 0-.3-.4-.3-.5-.1-1.7 11.9-1.2 24.5 1.8 36.2.7 3.9 1.6 7.8 2.8 11.6.1.3.5.2.4-.1-.3-1.4-.7-2.9-1-4.3 1.1 3.1 2.4 6.1 4 9 .3.4.8.2.7-.1zm-9.3-4.4c.1.2.4.1.4-.1-3.9-13.2-5.8-26.1-4.7-39.9 0-.1-.1-.1-.2 0-1.8 13.3-.6 27.5 4.5 40z" fill="#030508" stroke-width="none" opacity="1" stroke="none"></path></g></g><g id="svga-group-humanbody-back"><path id="SvgjsPath4501" d="m168.5 219.5-1.7-21.5s.7-9-8.8-15.3-23.4-10.1-29.5-14.2c-6.1-4.1-9.2-4.5-9-16.9s.9-40.3.9-40.3H79.6s.7 27.9.9 40.3c.2 12.4-2.9 12.8-9 16.9-6.1 4.1-20 7.9-29.5 14.2S33.2 198 33.2 198l-1.6 21.5h136.9z" fill="#d88f61" stroke-width="none" opacity="1" stroke="none"></path></g><g id="svga-group-chinshadow-single"><path id="SvgjsPath5018" d="M100 163.9c5.96 0 13.3-4.65 19.53-9.3-.03-.92-.04-1.91-.03-3 .2-12.4.9-40.3.9-40.3H79.6s.7 27.9.9 40.3c.02 1.09.01 2.08-.03 3 6.23 4.65 13.57 9.3 19.53 9.3z" fill="#b9642e" stroke-width="none" opacity="0.65" stroke="none"></path></g><g id="svga-group-humanbody-front"><path id="SvgjsPath4502" d="M73.8 175.9c5.1 2.9 11.8 5.2 17.6 5.7.4 0 .4-.6.1-.7-2.8-1.1-5.9-1.7-8.8-2.6-2.9-.9-5.8-2-8.8-2.7-.1-.1-.3.2-.1.3zm35.2 6.2c5.3-.6 11.3-3 15.9-5.8.3-.2.1-.6-.2-.5-2.6.9-5.2 2-7.8 2.9-2.6.9-5.4 1.5-8 2.5-.5.1-.5.9.1.9z" fill="#b9642e" stroke-width="none" opacity="1" stroke="none"></path><path id="SvgjsPath4503" d="m168.4 219.4-2.1-21.4c0-2.2-.5-4.5-1.5-6.6-.9-2.1-2.3-3.9-3.9-5.5s-3.5-2.8-5.5-4c-2-1.2-4.1-2.2-6.2-3.1-4.2-1.9-8.6-3.6-12.9-5.4-2.2-.9-4.3-1.9-6.4-3-1.1-.6-2.1-1.2-3-1.9-1-.6-2-1.2-3-1.9s-2-1.5-2.8-2.6c-.8-1-1.3-2.2-1.7-3.4-.7-2.4-.8-4.8-.8-7.2 0-4.7.2-9.4.3-14.1.2-9.4.6-18.7.9-28l.6.6-20.4-.2-20.4-.1.3-.3.7 28c.1 4.7.3 9.3.4 14 0 2.4-.1 4.7-.8 7.1-.3 1.2-.9 2.3-1.6 3.3-.8 1-1.7 1.8-2.7 2.5s-2 1.3-2.9 2c-.9.6-1.9 1.3-3 1.9-2.1 1.2-4.2 2.1-6.4 3.1-4.3 1.9-8.6 3.6-12.8 5.6-2.1 1-4.2 2.1-6.1 3.2-2 1.2-3.8 2.4-5.4 4-1.6 1.6-2.9 3.4-3.8 5.4-.4 1-.8 2.1-1 3.1-.2 1.1-.4 2.2-.3 3.2v.2l-1.5 21.5-1-1.1 34 .1c11.3 0 22.7.1 34.1.2l34.2.3 34.4.5zm.2.2-34 .4-34.2.3c-11.4.1-22.9.2-34.4.2l-34.4.1h-1.1l.1-1.1 1.7-21.5v.1c-.1-5.1 2.2-9.8 5.7-13.3 1.7-1.7 3.8-3.1 5.8-4.3 2-1.2 4.2-2.2 6.3-3.2 4.3-2 8.7-3.7 13-5.4 2.1-.9 4.3-1.8 6.3-2.9 1-.5 1.9-1.1 3-1.8 1-.6 2-1.2 2.9-1.9.9-.6 1.8-1.4 2.4-2.2.7-.9 1.2-1.9 1.5-2.9.6-2.1.8-4.5.8-6.8 0-4.6-.1-9.3-.2-14l-.6-28v-.3h.3l20.4-.1 20.4-.2h.6v.6c-.1 9.3-.2 18.7-.4 28-.1 4.7-.2 9.4-.2 14 .1 2.3.2 4.6.8 6.7.3 1.1.8 2 1.4 2.9.6.8 1.4 1.6 2.4 2.2.9.6 1.9 1.3 2.9 1.9 1 .7 1.9 1.3 2.9 1.8 2 1.1 4.1 2.1 6.3 3 4.3 1.8 8.6 3.6 12.9 5.6 2.1 1 4.2 2.1 6.2 3.3 2 1.2 4 2.6 5.7 4.3 3.4 3.4 5.6 8.1 5.4 13v-.1l1.4 21.6zm-112.8-.4 1.9-13.8.1 13.8h-2zm88.6 0-1.9-13.8-.1 13.8h2z" fill="#aa5119" stroke-width="none" opacity="1" stroke="none"></path></g><g id="svga-group-clothes-single"><path id="SvgjsPath9474" d="M172 220s-1.3-17.2-2.6-22.7-4-12.6-5.1-13.4c-1.1-.9-1.9-.4-1.9-.4s-1.1-.9-4.5-3.4-18.5-7.2-20.4-8.5c-1.9-1.3-10.2-4.7-10.2-4.7l.2-2.3s-2.6-1.9-3.4-3.4c-.8-1.5-1.3-3.6-1.3-3.6l-.4-2.5s-.6 2-1 3.3-1 6.5-1.5 8.8c-.3 1.5-2.2 4.6-3.5 6.1-1.5 1.6-3.8 3-6.1 4.2-3.4 1.8-4.8 2.4-5.4 3.1-.6.7-.9 2.9-1.9 6l-1.1 2.6s-2.9-3.9-4.5-6.4c-1.6-2.5-3.1-3.4-4-3.4s-5.7.1-6.1-.2-1.8-1.7-2.4-2.8c-.7-1.1-3.4-8.1-4.1-9.5-.7-1.4-2-7.2-2.4-8.5-.3-1.3-.6-3.1-.6-3.1l-.4 1.1s-.8 3.4-1.7 4.9c-.8 1.5-3.4 3.4-3.4 3.4l.2 2.3s-8.3 3.4-10.2 4.7c-1.9 1.3-17 6-20.4 8.5s-4.5 3.4-4.5 3.4-.8-.4-1.9.4c-1.1.9-3.8 7.9-5.1 13.4S28 220 28 220" fill="#101820" stroke-width="none" opacity="1" stroke="none"></path><path id="SvgjsPath9475" d="M163.9 185.7c-.1-.4-.8-.2-.7.2 2.9 9.4 4.1 19.1 5.7 28.8 0 .2.4.1.4-.1.6-10-1.9-19.6-5.4-28.9zm-3.1-1.1c-2.3 4.8-3.6 10.2-3.9 15.5 0 .2.3.2.3 0 .8-5.4 2.1-10.3 3.9-15.5 0 0-.2-.1-.3 0zm-59.6 12.5c-.2-.1-.4-.2-.2-.4.3-.3-.1-.7-.4-.6-1 .4-.1 2.1.7 1.4.1-.1 0-.3-.1-.4zm-.4 16.4c0-.2-.2-.3-.4-.1-.6.5 0 1.6.7 1.3.1 0 .1-.2 0-.2-.1-.4-.3-.6-.3-1zm6.9-31.2c-.3 0-.7-.1-.7-.5 0-.2-.4-.3-.4-.1-.1.4 0 .7.3.9.3.2.7.2.9 0 .2-.1.1-.3-.1-.3zm-22.9-3.5c-2.3 1.4-4.4 3.4-6.4 5.2-1.9 1.9-4.1 3.8-5.4 6.2-.1.2.1.3.3.2 2.1-1.8 3.7-4 5.7-5.9 2-1.9 4.2-3.5 6.2-5.4.1-.1-.2-.4-.4-.3zm-45.5 5.6c1 7.4 3.8 14.6 5 22.1 0 .1.1.1.1 0-.4-7.2-1-15.8-4.7-22.1-.1-.3-.5-.2-.4 0zm-2.7.6c-4 7.9-6.2 17.4-6.2 26.2 0 .2.4.3.4.1 1.3-9.1 3.3-17.3 6.3-26 .2-.4-.3-.6-.5-.3zm93.5 4.3c-2.5-8.2-4.1-15.7-4.3-24.3 0-.3-.4-.3-.5 0-.7 7.7.5 16.3 3.7 23.5-2.5-3.1-5.3-6.1-8.1-8.8-2-1.9-4.2-4.1-7.2-2.9-.3.1-.2.6.2.6 3.5-.8 6.7 4.4 8.9 6.5 2.2 2.1 4.3 4.4 6.6 6.3.3.2.8-.1.6-.4.1-.2.2-.3.1-.5zm-12.8-14.1c3.4-3.2 5.9-8.9 4.8-13.7-.1-.2-.4-.2-.4.1-.3 2.4-.3 4.8-1.2 7.1-.8 2.3-2.1 4.4-3.5 6.3-.1.1.2.3.3.2zm12.4-3.9c8.6 4.8 18.3 8.1 27.5 11.5.3.1.5-.4.2-.5-8.4-4.8-17.8-9.7-27.4-11.9-.4-.1-.8.6-.3.9z" fill="#1c262f" stroke-width="none" opacity="1" stroke="none"></path><path id="SvgjsPath9476" d="M158.3 201.6c-.2 2.9-.3 5.7-.3 8.6v4.3c.1 1.4.1 2.9.2 4.3.1-1.4.2-2.9.3-4.3l.3-4.3.6-8.5c.2-2.8.5-5.6 1-8.4.3-1.4.6-2.8 1-4.1.4-1.4.8-2.7 1.4-4.1-1.4 2.5-2.4 5.2-3.1 8-.9 2.8-1.2 5.6-1.4 8.5zm-51.2-20.3c.6 0 1.2.5 1.2 1.2s-.5 1.2-1.2 1.2-1.2-.5-1.2-1.2.6-1.2 1.2-1.2zm-6.2 14.4c.6 0 1.2.5 1.2 1.2s-.5 1.2-1.2 1.2-1.2-.5-1.2-1.2.6-1.2 1.2-1.2zm-.1 17.1c.6 0 1.2.5 1.2 1.2s-.5 1.2-1.2 1.2-1.2-.5-1.2-1.2.6-1.2 1.2-1.2zm15.7-31.9s.1-.1 0 0c.1-.1 0 0 0 0zm55 29.3c-.2-3.3-.5-6.6-.9-9.8-.4-3.3-1.3-6.5-2.3-9.7-.5-1.6-1.1-3.1-1.8-4.7-.4-.8-.7-1.5-1.2-2.3-.4-.5-.8-.8-1.3-1-.3-.1-.6-.2-.9-.2h-.4l-3.6-2.8c-.6-.5-1.4-1-2.1-1.4-.8-.4-1.5-.8-2.2-1.1-3-1.4-6.1-2.5-9.1-3.6l-4.6-1.7c-.8-.3-1.5-.6-2.2-.9-.2-.1-.4-.2-.5-.2-.1-.1-.3-.1-.5-.3-.4-.2-.8-.4-1.1-.6-2.8-1.4-5.7-2.5-8.6-3.7l.1-1.9c0-.2-.1-.4-.2-.5-.7-.5-1.4-1.1-2.1-1.7-.3-.3-.6-.6-.9-1-.3-.3-.5-.7-.7-1.1-.4-.8-.7-1.7-.9-2.6-.2-.9-.3-1.8-.5-2.7 0-.1-.1-.2-.2-.3-1-.8-2.2-.9-2.2-.9-.2 1.8.3 4.7.4 5.4 0 .2-.1.4-.1.6l-.7 4.9c-.1.8-.2 1.6-.4 2.4-.2.7-.5 1.5-.9 2.2-.8 1.4-1.6 2.8-2.7 4-2.3 2.3-5.3 3.6-8.2 5.1-.7.4-1.5.7-2.2 1.2-.4.2-.8.5-1 .9-.3.4-.4.8-.5 1.2-.5 1.6-.9 3.2-1.4 4.7l-.7 1.7-2.6-3.9c-1.1-1.5-1.9-3.3-3.6-4.6-.4-.3-.9-.6-1.5-.8-.3-.1-.7-.1-.9-.1h-.7l-2.8-.1c-.5 0-.9 0-1.4-.1-.2 0-.4 0-.6-.1-.1 0-.1-.1-.2-.2-.6-.6-1.2-1.3-1.7-2.1-.4-.6-.8-1.6-1.1-2.4l-1.1-2.6-2.1-5.2c-.6-1.7-1-3.6-1.5-5.4l-.5-1.6-.1-.3c.1-.2.2-.6.3-1.1.1-1 .2-4 .2-4s-2 .4-2.5.8c-.2.1-.5.3-.6.6l-.4 1.1v.1c-.2.8-.4 1.6-.7 2.3-.2.8-.5 1.5-.9 2.2-.3.6-.8 1.1-1.4 1.7-.6.5-1.2 1.1-1.8 1.5-.3.2-.4.6-.4.9l.2 1.6c-2.8 1.2-5.5 2.3-8.3 3.7-.4.2-.7.4-1.1.6l-.3.2-.2.1c-.1.1-.3.1-.5.2-.7.3-1.5.6-2.2.9l-4.6 1.7c-3.1 1.1-6.1 2.3-9.1 3.6-.8.3-1.5.7-2.2 1.1-.7.4-1.6.9-2.2 1.4l-3.5 2.8h-.4c-.3 0-.6.1-.9.2-.5.2-1 .5-1.3 1-.6.8-.9 1.6-1.2 2.3-.7 1.5-1.3 3.1-1.8 4.7-1 3.1-1.9 6.4-2.3 9.7-.4 3.3-.7 6.6-.9 9.8-.2 3.3-.4 6.6-.6 9.8h.2c.3-3.3.7-6.5 1.1-9.8.4-3.2.8-6.5 1.3-9.7.5-3.2 1.5-6.3 2.6-9.4l1.8-4.5c.3-.7.7-1.5 1.1-2 .1-.2.4-.4.6-.4.1 0 .2-.1.3-.1h.2l.6-.1c.4 1.2.8 2.4 1.2 3.7.4 1.5.8 2.9 1.1 4.4.7 3 1.2 6 1.6 9 .4 3 .8 6.1 1.1 9.1.2 1.5.3 3.1.5 4.6.2 1.5.3 3.1.4 4.6.2-3.1.1-6.2-.1-9.2-.2-3.1-.5-6.1-.9-9.2-.4-3.1-1-6.1-1.8-9.1-.8-2.7-1.7-5.4-3-8h.2l3.9-2.9c.7-.5 1.2-.9 1.9-1.2.7-.4 1.4-.7 2.2-1 3-1.2 6-2.3 9.1-3.5l4.6-1.7c.8-.3 1.5-.6 2.3-.9l.6-.3.3-.2.2-.1c.3-.2.7-.4 1-.5 2.7-1.3 5.6-2.5 8.4-3.7.1 1.4.2 2.8.1 4.1 0 1.3-.1 2.5-.2 3.8-.2 1.2-.4 2.4-.7 3.7-.5 2.5-.9 5.1-1.4 7.6-.5 2.5-.8 5.1-1.3 7.6 0 .3 0 .6.2.8.3.4 1 .4 1.4.1 1.5-1.3 2.9-2.7 4.3-4.1s2.8-2.8 4.1-4.2c.7-.7 1.3-1.5 1.9-2.3l.9-1.2c.2-.4.5-.8.8-1.1l.5-.5c2.3 1.4 4.8 2.3 7.4 2.9.9.2 1.9.4 2.8.5.6 1.8 1.4 3.4 2.3 5l.6 1.2c.2.4.3.9.6 1.3.3.7.7 1.4 1.1 2.2-.1.3-.2.5-.3.9-.2 1.4-.1 2.8-.1 4.1l.2 4c.1 1.3 0 2.6 0 4 0 1.3 0 2.7.1 4l.1 4c.1 1.3.1 2.7.2 4 .1-1.3.2-2.7.3-4l.2-4c.1-2.7.2-5.3.1-8.1-.1-1.4-.2-2.7-.2-4-.1-1.3-.2-2.7-.1-3.9 0-.5.4-1.2.7-1.8l.9-1.8c.5-1.1 1.1-2.1 1.5-3.1.3.1.6 0 .7-.3l1-2.6c.1-.3.1-.5.2-.8 1.1.1 2.1 0 3.2-.2.9-.1 1.8-.4 2.7-.6-1.4 2.6-2.8 5.2-4.1 7.8-.7 1.4-1.6 2.6-2.4 4-.4.7-.8 1.5-.8 2.4 0 .8 0 1.6.1 2.4.2 3.1.5 6.2.7 9.3.1 1.5.1 3.1.1 4.6.1 1.6.1 3.1.2 4.7.2-3.1.4-6.2.4-9.4-.1-3.1-.3-6.2-.5-9.3-.1-.8-.1-1.6-.1-2.3 0-.7.3-1.3.6-2 .7-1.3 1.6-2.7 2.2-4.1 1.2-2.7 2.4-5.4 3.5-8.2.3-.1.6-.2.8-.2 1.2-.4 2.3-.9 3.3-1.6 1-.6 1.9-1.4 2.8-2.2-1.1.5-2 1.1-3.1 1.5-1.1.5-2.2 1-3.3 1.4-2.1.8-4.2 1.3-6.4 1.8.3-1.3.7-2.6 1-3.8.1-.4.2-.8.4-1 .2-.3.5-.5.8-.7l2.1-1.2c.7-.3 1.3-.7 2-1 .9-.1 1.8-.1 2.7.1.6.1 1.1.3 1.5.7.5.4.9.8 1.3 1.2l1 1c1.3 1.4 2.5 3 3.8 4.5 1.7 2 3.7 3.4 5.7 4.9 2 1.5 4.1 2.8 6.2 4.1.2.1.5.2.7.1.5-.1.9-.6.7-1.2-.5-2.2-1.1-4.4-1.6-6.6s-1.1-4.4-1.7-6.6c-.6-2.2-1.2-4.4-1.7-6.6-.4-1.9-.8-3.8-1-5.7 2.7 1.2 5.5 2.4 8 3.8.4.2.7.4 1 .6.1.1.3.2.6.3s.4.2.6.3c.8.4 1.5.6 2.3.9l4.6 1.7 4.6 1.7c1.5.6 3 1.1 4.5 1.8.7.3 1.5.6 2.1 1 .7.4 1.3.7 1.9 1.2l3.9 2.9.9.1h.2c.1 0 .2 0 .4.1s.5.3.6.4c.4.5.8 1.3 1.1 2 .7 1.5 1.2 3 1.8 4.5 1.1 3.1 2.1 6.2 2.6 9.4s.9 6.5 1.3 9.7l1.1 9.8h.2c.2-3.2 0-6.5-.3-9.7zm-89.2-28.1c-.4.4-.7.7-1 1.1-.3.4-.6.7-.9 1.1-.7.7-1.4 1.4-2.1 2-1.4 1.4-2.9 2.6-4.3 3.9l-2.3 2.1c.3-1.6.6-3.2.8-4.9.4-2.5.8-5.1 1.2-7.6.2-1.2.4-2.6.5-3.9.1-1.3.1-2.6 0-3.9-.1-1.6-.3-3.1-.6-4.6.2-.2.3-.5.2-.8l-.2-1.8c.5-.4 1-.9 1.5-1.3.6-.6 1.3-1.3 1.8-2.2.4-.8.7-1.6.9-2.3l.5 1.8c.5 1.8.9 3.7 1.6 5.5l2.2 5.3 1.1 2.6.6 1.3.3.7c.1.2.3.5.4.7.6.9 1.2 1.6 2 2.3l.1.1c-1.5.8-3 1.6-4.3 2.8zm8.8 2c-2.5-.6-5-1.2-7.6-1.9.9-1 2.1-1.9 3.2-2.6l.1.1c.1.1.1.1.3.2.2.1.4.1.4.1.3.1.6.1.8.1H93.7c.3.1.7.3 1 .5 1.3 1 2.3 2.7 3.4 4.2l.5.6c-1.2-.2-2.4-.3-3.7-.5-1.2-.3-2.5-.5-3.8-.8zm8.7 8.3c-.3.6-.7 1.1-1 1.7-.2.3-.3.6-.5.8-.1-.7-.3-1.5-.5-2.2-.1-.5-.3-.9-.4-1.4-.2-.5-.4-.9-.6-1.4-.9-1.6-1.9-3.2-3.1-4.6.4 0 .8.1 1.2.1 1.3.1 2.6 0 3.8-.2l2.8 3.9c0 .1.1.1.2.1l-1.9 3.2zm28.3-15.3.7 3.3c.5 2.2 1 4.4 1.5 6.7.4 1.4.7 2.9 1 4.3-1.4-.9-2.8-1.8-4.1-2.7l-3-2.1c-1-.7-1.9-1.5-2.7-2.3-1.7-1.8-3.4-3.6-5.3-5.2-.5-.4-1-.8-1.5-1.1-.6-.4-1.2-.6-1.9-.6-.8-.1-1.5 0-2.2.2 2.1-1.1 4.2-2.3 5.9-4 1.2-1.2 2-2.7 2.8-4.1.4-.7.8-1.5 1-2.3.2-.8.3-1.6.5-2.4l.8-4.9c.1-.4.1-.8.2-1.2l.3-1.2.2-.6c.1.3.1.6.2 1 .2.9.5 1.9.9 2.8.2.4.4.9.7 1.3.3.4.6.8 1 1.1.6.6 1.2 1.2 1.9 1.7l-.2 2c0 .2.1.5.3.6 0 2.1.2 4.2.5 6.3.1 1.2.3 2.3.5 3.4z" fill="#000101" stroke-width="none" opacity="1" stroke="none"></path></g><g id="svga-group-head" transform="matrix(0.9999999999999999,-2.7755575615628914e-17,2.7755575615628914e-17,0.9999999999999999,1.4210854715202004e-14,2.842170943040401e-14)"><g id="svga-group-ears-left-move" transform="matrix(1,0,0,1,0,-1)"><g id="svga-group-ears-left" transform="matrix(0.9499999,0,0,0.9499999,2.9978664273920046,5.14938564207344)"><path id="SvgjsPath5608" d="M64 93.7s-2.3-2.2-5-3.3-5.7.7-6.6 3.4 1.2 14 4.7 18.1 5.8 4.4 8.1 2.3c2.3-2 6.4-9.9-1.2-20.5z" fill="#d88f61" stroke-width="none" opacity="1" stroke="none"></path><path id="SvgjsPath5609" d="M65.2 95.3c.4.6.7 1.2 1.1 1.8.4.6.7 1.3 1 1.9.3.7.6 1.3.8 2 .2.7.5 1.4.6 2.2.1.4.1.8.2 1.1l.1 1.2c0 1.6-.2 3.1-.6 4.6-.5 1.5-1.1 2.8-2.1 3.9-.2.3-.5.5-.7.8-.3.2-.5.4-.8.6-.6.4-1.2.7-1.9.7-.7.1-1.4 0-2-.3s-1.2-.7-1.7-1.1-1-.9-1.5-1.5c-.5-.5-.9-1.1-1.3-1.7-1.5-2.5-2.4-5.3-3.2-8.1-.4-1.4-.7-2.8-1-4.3s-.5-2.9-.4-4.5c0-.4.1-.8.2-1.3.1-.2.1-.4.2-.6l.3-.5c.4-.7.9-1.2 1.4-1.7 1.1-.9 2.4-1.3 3.7-1.1.6.1 1.3.3 1.8.6.6.3 1.1.6 1.7 1 1.1.7 2.1 1.5 3.1 2.4l1 1.9zm-4.4-3.8c-.6-.3-1.1-.5-1.7-.7-.6-.2-1.1-.3-1.7-.3-1.1.1-2.2.5-3.1 1.3-.4.4-.8.8-1.1 1.4-.1.3-.3.5-.4.8-.1.3-.2.5-.2.9-.2 1.3-.1 2.8.1 4.2.2 1.4.4 2.9.7 4.3.7 2.8 1.7 5.6 3.3 7.7.8 1 1.8 1.9 2.7 2.7 1 .7 2.1 1.2 3.1 1 .5-.1 1-.3 1.5-.6s.9-.7 1.3-1.2c.7-1 1.4-2.1 1.7-3.4.4-1.3.6-2.6.7-4 0-1.4-.1-2.8-.4-4.2-.6-2.8-1.8-5.4-3.4-7.6-.9-1-2-1.7-3.1-2.3z" fill="#c97946" stroke-width="none" opacity="1" stroke="none"></path><path id="SvgjsPath5610" d="M55.9 93.3c3 .5 5 5.7 5.6 9.2.1.1.1.2.2.3.3.5-.4 1.1-.7.6-.4-.7-1-1.5-1.7-1.8-1.3-.5-2 1-1.7 2.5.4 1.7 1.5 2.8 2.5 4.1.1.1 0 .3-.1.2-1.6-1-4-4.5-2.9-6.7.8-1.6 2.1-1.3 3.2-.4-.7-2-1.3-4-2.8-5.5-.5-.5-1.4-1.3-2.1-1.2-1.2.2-1.2 2-1.3 3.1-.1 1.5.1 3.1.3 4.7 0 .2-.2.2-.2.1-.6-2.4-1.8-9.8 1.7-9.2z" fill="#b9642e" stroke-width="none" opacity="1" stroke="none"></path></g></g><g id="svga-group-ears-right-move" transform="matrix(1,0,0,1,0,-1)"><g id="svga-group-ears-right" transform="matrix(0.9499999,0,0,0.9499999,7.007155127563465,5.15973169395447)"><path id="SvgjsPath5611" d="M136 93.7s2.3-2.2 5-3.3 5.7.7 6.6 3.4-1.2 14-4.7 18.1-5.8 4.4-8.1 2.3c-2.3-2-6.4-9.9 1.2-20.5z" fill="#d88f61" stroke-width="none" opacity="1" stroke="none"></path><path id="SvgjsPath5612" d="M136 93.6c1-.9 2-1.7 3.1-2.4.5-.4 1.1-.7 1.7-1 .6-.3 1.2-.5 1.8-.6 1.3-.1 2.6.2 3.7 1.1.5.4 1 1 1.4 1.7l.3.5c.1.2.1.4.2.6.1.4.2.9.2 1.3.1 1.6-.2 3.1-.4 4.5-.3 1.5-.6 2.9-1 4.3-.8 2.8-1.7 5.6-3.2 8.1-.4.6-.8 1.1-1.3 1.7-.4.5-.9 1-1.5 1.5-.5.4-1.1.8-1.7 1.1-.6.3-1.3.4-2 .3s-1.3-.4-1.9-.7c-.3-.2-.6-.4-.8-.6-.3-.2-.5-.5-.7-.8-.9-1.1-1.6-2.5-2.1-3.9-.4-1.5-.7-3-.6-4.6l.1-1.2c0-.4.1-.8.2-1.1.1-.8.4-1.5.6-2.2.3-.7.5-1.4.8-2s.6-1.3 1-1.9.7-1.2 1.1-1.8l1-1.9zm0 .1c-1.6 2.2-2.8 4.9-3.4 7.6-.3 1.4-.4 2.8-.4 4.2 0 1.4.2 2.7.7 4 .4 1.3 1 2.4 1.7 3.4.4.5.8.9 1.3 1.2.5.3.9.6 1.5.6 1 .2 2.1-.3 3.1-1 1-.8 1.9-1.7 2.7-2.7 1.6-2.1 2.6-4.9 3.3-7.7.4-1.4.6-2.8.7-4.3.2-1.4.2-2.9.1-4.2 0-.3-.1-.6-.2-.9-.1-.3-.2-.6-.4-.8-.3-.5-.7-1-1.1-1.4-.9-.7-1.9-1.2-3.1-1.3-.6 0-1.1.1-1.7.3-.6.2-1.1.4-1.7.7-1 .7-2.1 1.4-3.1 2.3z" fill="#c97946" stroke-width="none" opacity="1" stroke="none"></path><path id="SvgjsPath5613" d="M144.1 93.3c-3 .5-5 5.7-5.6 9.2-.1.1-.1.2-.2.3-.3.5.4 1.1.7.6.4-.7 1-1.5 1.7-1.8 1.3-.5 2 1 1.7 2.5-.4 1.7-1.5 2.8-2.5 4.1-.1.1 0 .3.1.2 1.6-1 4-4.5 2.9-6.7-.8-1.6-2.1-1.3-3.2-.4.7-2 1.3-4 2.8-5.5.5-.5 1.4-1.3 2.1-1.2 1.2.2 1.2 2 1.3 3.1.1 1.5-.1 3.1-.3 4.7 0 .2.2.2.2.1.6-2.4 1.8-9.8-1.7-9.2z" fill="#b9642e" stroke-width="none" opacity="1" stroke="none"></path></g></g><g id="svga-group-faceshape-wrap" transform="matrix(0.9999999,0,0,0.9999999,0.000010000000756349436,0.000009714999762877596)"><g id="svga-group-faceshape-single"><path id="SvgjsPath5008" d="M100.01 41.36C78.61 41.36 60.2 56.9 59 85.4c0 0 .2 20.8 2.8 34.8 1.5 8 4 11.7 10.5 17 6.5 5.4 18.69 15.64 27.69 15.64s21.21-10.24 27.71-15.64 9-9 10.5-17c2.6-14 2.8-34.8 2.8-34.8-1.2-28.4-19.59-44.04-40.99-44.04z" fill="#d88f61" stroke-width="none" opacity="1" stroke="none"></path><path id="SvgjsPath5009" d="M100 41.3c-21.4 0-39.8 15.6-41 44.1 0 0 .2 20.8 2.8 34.8 1.5 8 4 11.7 10.5 17C78.8 142.6 91 153 100 153s21.2-10.4 27.7-15.8 9-9 10.5-17c2.6-14 2.8-34.8 2.8-34.8-1.2-28.4-19.6-44.1-41-44.1zm35.5 26.6c.2.7.5 1.5.7 2.2l.3 1.1c.1.4.2.8.3 1.1l.3 1.1.2 1.1.2 1.1.2 1.1.2 1.1.1 1.2.1 1.2c0 .4.1.8.1 1.2.1.8.1 1.6.2 2.3l.1 1.1V86c-.1 3.2-.2 6.4-.4 9.6-.3 6.4-.8 12.8-1.6 19.1l-.3 2.4-.4 2.3c-.3 1.5-.6 3-1 4.4s-.9 2.7-1.6 4c-.7 1.2-1.5 2.4-2.5 3.5s-2.1 2.2-3.3 3.2-2.4 2.1-3.6 3.1c-2.4 2.1-4.9 4.1-7.4 6-1.3 1-2.5 1.9-3.9 2.7-1.3.9-2.6 1.7-4 2.4s-2.8 1.4-4.2 1.9c-1.4.5-2.9.8-4.3.9-1.4 0-2.9-.2-4.4-.6-1.5-.4-2.9-1-4.4-1.7-1.4-.7-2.8-1.4-4.2-2.2-1.4-.8-2.7-1.7-4-2.6-1.3-.9-2.6-1.9-3.9-2.8-1.3-1-2.5-2-3.8-3-2.5-2.1-5-4-7.1-6.4-1-1.2-2-2.4-2.7-3.8-.7-1.4-1.3-2.8-1.7-4.3-.4-1.5-.7-3.1-.9-4.6l-.3-2.4-.2-2.4c-.6-6.4-.8-12.8-1-19.2l-.1-4.8-.1-4.8v-1.2l.1-1.1c0-.8.1-1.5.2-2.3 0-.4.1-.8.1-1.2l.2-1.2.2-1.2.2-1.1.2-1.1.2-1.1.2-1.1.3-1.1c.1-.4.2-.8.3-1.1l.3-1.1c.2-.7.5-1.5.7-2.2 1-2.9 2.3-5.8 3.9-8.4 1.6-2.7 3.5-5.2 5.7-7.4s4.7-4.2 7.5-5.8c1.4-.8 2.8-1.5 4.3-2.1.7-.3 1.5-.6 2.2-.8.4-.1.8-.2 1.1-.3l1.2-.3 1.2-.3.6-.1.6-.1L94 42c.4-.1.8-.1 1.2-.2a38.663 38.663 0 0 1 9.6 0c.4.1.8.1 1.2.2l1.2.2.6.1.6.1 1.2.3 1.2.3c.4.1.8.2 1.1.3.8.3 1.5.5 2.2.8 1.5.6 2.9 1.3 4.3 2.1 2.8 1.6 5.3 3.5 7.5 5.8 2.2 2.2 4.1 4.7 5.7 7.4 1.6 2.8 2.9 5.6 3.9 8.5z" fill="#aa5119" stroke-width="none" opacity="1" stroke="none"></path></g></g><g id="svga-group-mouth-single-move" transform="matrix(1,0,0,1,-0.5,0)"><g id="svga-group-mouth-single" transform="matrix(1.1000003000000003,0,0,1.1000003000000003,-10.2668559042351,-12.99675835050968)"><path id="SvgjsPath5377" d="M90 128.1s2 2.6 4 3.8 9.4 1.3 13.4-.2 7.5-6.6 8.1-7.8c0 0-2.9 1.9-7.1 1.5-4.3-.3-13.7.8-15.6 1.6s-2.8 1.1-2.8 1.1z" fill="#9b0808" stroke-width="none" opacity="1" transform="translate(0 3)" stroke="none"></path><path id="SvgjsPath5378" d="M117.2 121.6c-.5-.4-1-.6-1.6-.4-.4.1-.4.7-.1.8.1.1.2.1.3.2l-.6.6c-.7.8-2.3 2.2-5.3.8-3-1.4-5.1-1.8-7.1-.5s-2.7.9-4.6.2c-1.9-.6-4.3.4-5.5 1.7-1.2 1.3-2.2 2.6-4.1 2s-.8.5-.8.5c.2.1 1.5 1.1 2.5 1.4 1.1.2 2.1-.5 4.5-1.2s8.1-1.2 11.9-1.1c5.4.2 6.8-.6 8.3-1.8.7-.6 1.2-1.1 1.5-1.6.1.2.2.4.4.5.3.2.8.1.9-.3.2-.8-.2-1.4-.6-1.8z" fill="#930000" stroke-width="none" opacity="1" transform="translate(0 3)" stroke="none"></path><path id="SvgjsPath5379" d="M95.7 129.5c3.4 0 7.4.1 10.8-.9.5-.1.5-.8 0-1-3.4-1-7.7-.1-10.9 1.2-.3.2-.3.7.1.7z" fill="#a31111" stroke-width="none" opacity="1" transform="translate(0 3)" stroke="none"></path></g></g><g id="svga-group-eyes-left-move" transform="matrix(1,0,0,1,0,0)"><g id="svga-group-eyes-left"><g id="svga-group-eyesback-left"><path id="SvgjsPath9635" d="M92 99.3s-1.6-1.9-4.3-3.5c-2.7-1.6-6.5-2.8-10.1-2.4-3.5.4-6.5 1.3-6.4 1.4s1.1 2.3 3.4 3.6c2.3 1.3 4.9 2.6 8.2 2.7 3.3 0 6-.4 7.5-1s1.7-.8 1.7-.8z" fill="#ffffff" stroke-width="none" opacity="1"></path></g><g id="svga-group-eyesiriswrapper-left" transform="matrix(1,0,0,1,0,0)"><g id="svga-group-eyesiriscontrol-left" transform="matrix(1,0,0,1,0,0)"><g id="svga-group-eyesiris-left"><path id="SvgjsPath9199" d="M82 91c3 0 5.4 2.4 5.4 5.4s-2.4 5.4-5.4 5.4-5.4-2.4-5.4-5.4S79 91 82 91z" fill="#382108" stroke-width="none" opacity="1"></path><path id="SvgjsPath9200" d="M82 91.3c2.8 0 5.2 2.3 5.2 5.2s-2.3 5.2-5.2 5.2c-2.8 0-5.2-2.3-5.2-5.2s2.3-5.2 5.2-5.2m0-.5c-3.1 0-5.7 2.6-5.7 5.7s2.6 5.7 5.7 5.7 5.7-2.6 5.7-5.7c0-3.2-2.6-5.7-5.7-5.7z" fill="#190d00" stroke-width="none" opacity="1"></path><path id="SvgjsPath9201" d="M79.1 98c0 1.3.5 2.5 1.4 3.4.5.2 1 .2 1.5.2 2.8 0 5.2-2.3 5.2-5.2 0-1.1-.3-2-.9-2.8-.7-.4-1.5-.6-2.3-.6-2.7 0-4.9 2.2-4.9 5z" fill="#472d11" stroke-width="none" opacity="1"></path><path id="SvgjsPath9202" d="M82 93.6c1.5 0 2.8 1.3 2.8 2.8s-1.3 2.8-2.8 2.8-2.8-1.3-2.8-2.8 1.3-2.8 2.8-2.8z" fill="#000000" stroke-width="none" opacity="1"></path><path id="SvgjsPath9203" d="M80.8 93.5c.8 0 1.4.6 1.4 1.4s-.6 1.4-1.4 1.4-1.4-.6-1.4-1.4.6-1.4 1.4-1.4zm2.7 4c.5 0 .9.4.9.9s-.4.9-.9.9-.9-.4-.9-.9.4-.9.9-.9z" fill="#ffffff" stroke-width="none" opacity="1"></path></g></g></g><g id="svga-group-eyesfront-left"><path id="SvgjsPath9643" d="M70.73 98.03c0 6.9 4.93 12.5 11.02 12.5s11.02-5.6 11.02-12.5-4.93-12.5-11.02-12.5-11.02 5.59-11.02 12.5zm.42-3.19c-.07-.11 2.9-.93 6.44-1.36 3.54-.43 7.34.79 10.06 2.36 2.72 1.58 4.33 3.48 4.33 3.48s-.35.17-1.78.78c-1.43.61-4.22 1.07-7.48 1.04-3.26-.04-5.83-1.36-8.16-2.68-2.34-1.33-3.34-3.52-3.41-3.62z" fill="#d88f61" stroke-width="none" opacity="1"></path><path id="SvgjsPath9644" d="M92.14 98.9c-1.64-4.26-4.72-7.79-9.36-8.78-4.77-1.01-8.68 1.11-12.08 4.21-.06.06-.18-.02-.12-.1 5.62-8.37 19.63-4.78 21.65 4.63.01.07-.07.09-.09.04z" fill="#c97946" stroke-width="none" opacity="1"></path><path id="SvgjsPath9645" d="M63.55 95.41c2.13.29 4.01-.12 5.87-.69-1.83-.08-3.62-.65-5.17-1.79-.16-.11-.07-.43.15-.34 2.45 1 4.91 1.54 7.45 1.35.82-.27 1.66-.52 2.53-.72 2.12-.49 4.34-.6 6.48-.26 4.19.66 8.97 2.88 11.37 6.52.04.07-.05.12-.1.08-4.31-3.46-8.42-5.76-14.13-5.63-2.16.05-4.27.7-6.39 1.29 4.59 6 13.2 7.22 19.92 4.28.03-.02.06.03.03.05-6.58 3.27-16.06 2.28-20.4-4.21-2.56.7-5.11 1.26-7.72.5-.28-.09-.16-.47.11-.43z" fill="#000000" stroke-width="none" opacity="1"></path></g></g></g><g id="svga-group-eyes-right-move" transform="matrix(1,0,0,1,0,0)"><g id="svga-group-eyes-right"><g id="svga-group-eyesback-right"><path id="SvgjsPath9636" d="M108 99.3s1.6-1.9 4.3-3.5c2.7-1.6 6.5-2.8 10.1-2.4 3.5.4 6.5 1.3 6.4 1.4s-1.1 2.3-3.4 3.6c-2.3 1.3-4.9 2.6-8.2 2.7-3.3 0-6-.4-7.5-1s-1.7-.8-1.7-.8z" fill="#ffffff" stroke-width="none" opacity="1"></path></g><g id="svga-group-eyesiriswrapper-right" transform="matrix(1,0,0,1,0,0)"><g id="svga-group-eyesiriscontrol-right" transform="matrix(1,0,0,1,0,0)"><g id="svga-group-eyesiris-right"><path id="SvgjsPath9204" d="M118 91c3 0 5.4 2.4 5.4 5.4s-2.4 5.4-5.4 5.4-5.4-2.4-5.4-5.4S115 91 118 91z" fill="#382108" stroke-width="none" opacity="1"></path><path id="SvgjsPath9205" d="M118 91.3c2.8 0 5.2 2.3 5.2 5.2s-2.3 5.2-5.2 5.2c-2.8 0-5.2-2.3-5.2-5.2s2.4-5.2 5.2-5.2m0-.5c-3.1 0-5.7 2.6-5.7 5.7s2.6 5.7 5.7 5.7 5.7-2.6 5.7-5.7c0-3.2-2.5-5.7-5.7-5.7z" fill="#190d00" stroke-width="none" opacity="1"></path><path id="SvgjsPath9206" d="M115.1 98c0 1.3.5 2.5 1.4 3.4.5.2 1 .2 1.5.2 2.8 0 5.2-2.3 5.2-5.2 0-1.1-.3-2-.9-2.8-.7-.3-1.4-.6-2.3-.6-2.7 0-4.9 2.2-4.9 5z" fill="#472d11" stroke-width="none" opacity="1"></path><path id="SvgjsPath9207" d="M118 93.6c1.5 0 2.8 1.3 2.8 2.8s-1.3 2.8-2.8 2.8-2.8-1.3-2.8-2.8 1.3-2.8 2.8-2.8z" fill="#000000" stroke-width="none" opacity="1"></path><path id="SvgjsPath9208" d="M116.8 93.5c.8 0 1.4.6 1.4 1.4s-.6 1.4-1.4 1.4-1.4-.6-1.4-1.4.7-1.4 1.4-1.4zm2.7 4c.5 0 .9.4.9.9s-.4.9-.9.9-.9-.4-.9-.9.4-.9.9-.9z" fill="#ffffff" stroke-width="none" opacity="1"></path></g></g></g><g id="svga-group-eyesfront-right"><path id="SvgjsPath9646" d="M118.26 85.53c-6.08 0-11.02 5.6-11.02 12.5s4.93 12.5 11.02 12.5 11.02-5.6 11.02-12.5-4.94-12.5-11.02-12.5zm7.19 12.92c-2.33 1.32-4.9 2.65-8.16 2.68-3.26.04-6.05-.43-7.48-1.04-1.43-.61-1.78-.78-1.78-.78s1.6-1.9 4.33-3.48c2.72-1.58 6.52-2.79 10.06-2.36 3.54.43 6.52 1.25 6.44 1.36-.08.11-1.08 2.3-3.41 3.62z" fill="#d88f61" stroke-width="none" opacity="1"></path><path id="SvgjsPath9649" d="M107.86 98.9c1.64-4.26 4.72-7.79 9.36-8.78 4.77-1.01 8.68 1.11 12.08 4.21.06.06.18-.02.12-.1-5.62-8.37-19.63-4.78-21.65 4.63-.01.07.07.09.09.04z" fill="#c97946" stroke-width="none" opacity="1"></path><path id="SvgjsPath9650" d="M136.45 95.41c-2.13.29-4.01-.12-5.87-.69 1.83-.08 3.62-.65 5.17-1.79.16-.11.07-.43-.15-.34-2.45 1-4.91 1.54-7.45 1.35-.82-.27-1.66-.52-2.53-.72-2.12-.49-4.34-.6-6.48-.26-4.19.66-8.97 2.88-11.37 6.52-.04.07.05.12.1.08 4.31-3.46 8.42-5.76 14.13-5.63 2.16.05 4.27.7 6.39 1.29-4.59 6-13.2 7.22-19.92 4.28-.03-.02-.06.03-.03.05 6.58 3.27 16.06 2.28 20.4-4.21 2.56.7 5.11 1.26 7.72.5.28-.09.16-.47-.11-.43z" fill="#000000" stroke-width="none" opacity="1"></path></g></g></g><g id="svga-group-facehighlight-single"></g><g id="svga-group-eyebrows-left-move" transform="matrix(1,0,0,1,0,0)"><g id="svga-group-eyebrows-left-rotate" transform="matrix(1,1.7453292519943295e-9,-1.7453292519943295e-9,1,1.5003287501258455e-7,-1.402671330197336e-7)"><g id="svga-group-eyebrows-left"><path id="SvgjsPath6683" d="M72.9 84.2c.1-.2.4-.3.6-.4.2-.1.4-.2.6-.2.4-.2.8-.4 1.2-.5.5-.1 1.2-.5 1.7-.2 1.6-.6 3.7-.2 5.1.6 1.9.2 3.9.8 5.3 1.8.1.1.2.2.2.3.3.1.5.2.8.3 1 .4 2.1.7 3.1 1.2.1 0 .2.1.3.1.3.1.4.7.2.8-.1.1-.1.2-.2.3-.8.6-1.8.2-2.6-.1-.7-.3-1.5-.6-2-1.2-.8-.3-1.4-.7-2.1-1.1-.1 0-.2-.1-.3-.1-1.2-.2-2.5-.7-3.7-1.3-.7-.1-1.3-.3-2-.3-.9-.1-1.8.2-2.8-.1h-.1c-.2.1-.4.1-.6.2-.8.2-1.5.4-2.3.4-.1 0-.2-.1-.2-.2H73s-.2-.1-.1-.3z" fill="#100a08" stroke-width="none" opacity="1" stroke="none"></path><path id="SvgjsPath6684" d="M77.4 82.3c3.1-.2 6.2 1.5 9 2.6 1.7.7 5.2.9 5.9 3 .1.3-.3.4-.5.2-.9-1.2-2.4-1.4-3.8-1.8-1.2-.4-2.3-.8-3.5-1.3-2.4-1-4.8-1.6-7.3-2.2-.1-.1 0-.4.2-.5z" fill="#1f1613" stroke-width="none" opacity="1" stroke="none"></path><path id="SvgjsPath6685" d="M93.3 87.9c.3-1.4-1.8-1.9-2.8-2.3-2.4-1-4.9-2.1-7.4-2.8-1.5-.4-3.1-.7-4.6-.7-1.2 0-2.3.1-3.5.5-2 .6-3.9 1.8-5.6 3.1-.9.5-1.8 1.2-2.5 1.9-.1.1 0 .3.2.2 0 0 .1 0 .1-.1 0 .1.1.1.2.1 1.5-.7 2.8-1.6 4.3-2.2 1.5-.6 3.1-1 4.7-1.1h.7c1.9 0 3.7.4 5.4 1.2 2.4 1.1 4.6 2.6 7 3.5.4.2.9.2 1.4.2 1.1 0 2.2-.4 2.4-1.5zM78.5 83c1.6 0 3.2.4 4.8.9 2 .7 4 1.6 6 2.4.4.2 2.4.7 2.6 1.2.2.6-.2.8-.8.9-.3 0-.6-.1-.8-.1-.6-.2-1.2-.6-1.7-.9-3.1-1.6-6.3-3.5-9.8-3.7h-1c-1.1 0-2.3.1-3.5.3.5-.2 1-.4 1.6-.6.8-.3 1.7-.4 2.6-.4z" fill="#010000" stroke-width="none" opacity="1" stroke="none"></path></g></g></g><g id="svga-group-eyebrows-right-move" transform="matrix(1,0,0,1,0,0)"><g id="svga-group-eyebrows-right-rotate" transform="matrix(1,1.7453292519943295e-9,-1.7453292519943295e-9,1,1.5032446754048578e-7,-2.0871141259704018e-7)"><g id="svga-group-eyebrows-right"><path id="SvgjsPath6686" d="M127.1 84.2c-.1-.2-.4-.3-.6-.4-.2-.1-.4-.2-.6-.2-.4-.2-.8-.4-1.2-.5-.5-.1-1.2-.5-1.7-.2-1.6-.6-3.7-.2-5.1.6-1.9.2-3.9.8-5.3 1.8-.1.1-.2.2-.2.3-.3.1-.5.2-.8.3-1 .4-2.1.7-3.1 1.2-.1 0-.2.1-.3.1-.3.1-.4.7-.2.8.1.1.1.2.2.3.8.6 1.8.2 2.6-.1.7-.3 1.5-.6 2-1.2.8-.3 1.4-.7 2.1-1.1.1 0 .2-.1.3-.1 1.2-.2 2.5-.7 3.7-1.3.7-.1 1.3-.3 2-.3.9-.1 1.8.2 2.8-.1h.1c.2.1.4.1.6.2.8.2 1.5.4 2.3.4.1 0 .2-.1.2-.2h.1s.2-.1.1-.3z" fill="#100a08" stroke-width="none" opacity="1" stroke="none"></path><path id="SvgjsPath6687" d="M122.6 82.3c-3.1-.2-6.2 1.5-9 2.6-1.7.7-5.2.9-5.9 3-.1.3.3.4.5.2.9-1.2 2.4-1.4 3.8-1.8 1.2-.4 2.3-.8 3.5-1.3 2.4-1 4.8-1.6 7.3-2.2.1-.1 0-.4-.2-.5z" fill="#1f1613" stroke-width="none" opacity="1" stroke="none"></path><path id="SvgjsPath6688" d="M109 89.3c.5 0 1-.1 1.4-.2 2.4-.9 4.7-2.4 7-3.5 1.8-.8 3.6-1.2 5.4-1.2h.7c1.6.1 3.2.5 4.6 1.1 1.5.6 2.9 1.6 4.3 2.2.1 0 .2 0 .2-.1 0 0 .1 0 .1.1.2.1.3-.1.2-.2-.7-.7-1.6-1.4-2.5-1.9-1.7-1.3-3.6-2.4-5.6-3.1-1.1-.4-2.3-.5-3.5-.5-1.6 0-3.1.3-4.6.7-2.5.7-5 1.8-7.4 2.8-.9.4-3.1.9-2.8 2.3.4 1.2 1.5 1.6 2.5 1.5zm15.2-5.9c.5.2 1.1.3 1.6.6-1.2-.2-2.3-.3-3.5-.3h-1c-3.5.2-6.8 2.2-9.8 3.7-.6.3-1.1.7-1.7.9-.2.1-.5.1-.8.1-.5 0-1-.2-.8-.9.2-.5 2.2-1 2.6-1.2 2-.8 4-1.7 6-2.4 1.6-.5 3.2-.9 4.8-.9.8 0 1.7.1 2.6.4z" fill="#010000" stroke-width="none" opacity="1" stroke="none"></path></g></g></g><g id="svga-group-nose-single-move" transform="matrix(1,0,0,1,0.5,1)"><g id="svga-group-nose-single" transform="matrix(1.0000001,0,0,1.0000001,-0.000009989660654241561,-0.000010868466191027437)"><path id="SvgjsPath9497" d="M97.72 89.37c-.8 3.33-.91 6.89-1.27 10.29-.38 3.64-1.08 7.4-1.03 11.06 0 .29.45.37.52.07.74-3.34.83-6.91 1.18-10.31.37-3.64 1.05-7.41.93-11.06 0-.19-.28-.24-.33-.05z" fill="#aa5119" stroke-width="none" opacity="1" transform="translate(0 2)"></path><path id="SvgjsPath9498" d="M94.71 108.8c-.98 1.31-1.8 2.73-2.52 4.2-.46.95-1.04 2.07-.73 3.16.5 1.8 2.79 2.36 4.28 1.51.44-.26.24-.95-.26-.95-.87-.01-1.89.27-2.58-.47-.84-.89-.01-2.5.36-3.4.55-1.32 1.22-2.59 1.74-3.92.07-.19-.19-.26-.29-.13z" fill="#aa5119" stroke-width="none" opacity="1" transform="translate(0 2)"></path><path id="SvgjsPath9499" d="M94.57 116.21c2.7-.2 3.21 3.2 5.78 3.28 2.2.07 2.37-3.24 4.46-3.14.24.01.32-.33.12-.45-2.37-1.4-2.81 2.72-4.99 2.46-1.29-.15-2.21-2.05-3.37-2.6-.79-.37-1.36-.34-2.13.01-.19.11-.09.46.13.44z" fill="#aa5119" stroke-width="none" opacity="1" transform="translate(0 2)"></path><path id="SvgjsPath9500" d="M104.07 117.75c1.78.4 3.85-.15 4.27-2.13.21-.99-.12-1.97-.64-2.81-.84-1.37-1.93-2.53-2.73-3.95-.13-.24-.47-.12-.48.13-.1 1.59 1.08 2.69 1.92 3.92.78 1.13 1.45 2.69.14 3.81-.6.51-1.74.42-2.48.56-.24.05-.23.42 0 .47z" fill="#aa5119" stroke-width="none" opacity="1" transform="translate(0 2)"></path><path id="SvgjsPath9501" d="M102.32 112.41c-.39-.7-1.4-.81-1.96-.25-.05.05-.23.28-.28.34-.06.08-.19.25-.21.28-.06.1-.12.2-.17.3l-.11.26c0-.01-.01.01-.03.05-.06.06-.12.13-.17.19-.17.18-.34.36-.48.57-.4.63-.08 1.35.46 1.75.83.62 2.03.12 2.61-.58.7-.84.89-1.92.34-2.91z" fill="#e09b70" stroke-width="none" opacity="1" transform="translate(0 2)"></path></g></g><g id="svga-group-hair-front" transform="matrix(0.9999999,0,0,0.9999999,0.00000993578910879478,0.000007243592449412972)"><path id="SvgjsPath10438" d="M134.7 56.4c-10.9-18.1-34.8-16.7-34.8-16.7S76 38.3 65 56.4C54.8 73.4 57 88 57 88s2.2 2.2 3.5 10.2c0 .3.2.4.4.5 0 .1 0 .3.1.4 0 .1.1.2.2.3.1.2.2.4.4.6.2.4.8.1.6-.3l-.3-.6v-.5h.2c0 .1.1.2.1.2.2.3.6.1.5-.2-.1-.4-.2-.7-.3-1.1v-.4c.2.3.6.1.5-.2 0-.2-.1-.3-.1-.4.1-.1.1-.1.1-.2v-.8c0 .1.1.1.1.2.2.2.6.1.5-.2l-.3-.9V93.8c.2.2.5 0 .4-.2 0-.2-.1-.5-.2-.7v-.3c.2.1.5-.1.4-.4-.1-.3-.2-.7-.3-1 0 0 0-.1.1-.1v.1c.1.3.5.2.5-.1-.1-.4-.2-.7-.4-1v-.4h.1c0 .2.1.4.1.6 0 .2.3.1.3-.1s-.1-.4-.1-.6c.1.1.3 0 .3-.2 0-.3-.1-.5-.1-.8v-.4c.1 0 .2-.1.2-.2 0-.3-.1-.7-.1-1h.1c0 .1.1.1.1.2.2.4.7.1.6-.3-.1-.5-.1-1.1-.2-1.7.2.1.4.1.4-.2.1-.3 0-.5 0-.8v-.4s0 .1.1.1c.1.2.4.1.4-.2-.1-.4-.1-.8-.2-1.2v.1c.1.3.6.2.5-.1 0-.2-.1-.4-.1-.6v-.7c.1 0 .3-.1.2-.3-.1-.3-.2-.6-.2-.8V80c0 .1 0 .1.1.2.2.5.8.3.7-.2 0-.2 0-.3-.1-.5.2.1.5-.1.5-.3.1-.1.2-.2.2-.3v-.1c.2.1.5-.2.4-.4-.1-.2-.2-.5-.3-.8.2 0 .4-.2.4-.4 0-.3-.1-.6-.1-.9.1.2.2.4.3.5.2.3.8.1.6-.3-.1-.2-.1-.5-.2-.7l.1.1c.3.2.7 0 .6-.4 0-.2-.1-.3-.2-.4.1.1.1.2.2.2.3.4 1 .1.7-.4l-.3-.6c.1 0 .2-.1.2-.2v-.2c.1.2.2.3.3.5.2.4.8.1.6-.3-.2-.3-.3-.7-.4-1 .2.1.4 0 .4-.3v-.2c.2.2.6 0 .5-.3-.1-.4-.1-.8-.2-1.2.2.4.4.7.6 1.1.2.3.8.1.7-.3-.1-.4-.2-.8-.4-1.1.2.3.7 0 .6-.4-.1-.4-.2-.8-.2-1.2l.2-.2c.1.4.2.8.4 1.3s.9.3.8-.2l-.3-1.5c.2.4.9.2.8-.2-.1-.3-.1-.5-.2-.8 0 .2.1.3.1.5.1.4.9.4.8-.1 0-.4-.1-.8-.1-1.2l.1-.1c.1.3.1.5.2.8.1.4.8.3.8-.1v-1.5s.1 0 .1-.1c0 .1.1.3.1.4.2.5.8.3.7-.2v-.3s0 .1.1.1c.1.4.2.9.3 1.3.1.4.7.2.6-.2 0-.1-.1-.3-.1-.4.2 0 .4-.1.4-.3 0-.3-.1-.7-.1-1 .2.2.8.1.7-.3 0-.4 0-.7.1-1.1h.1v.5c0 .5.7.6.8.1l.3-1.2v.6c0 .4.7.6.8.1 0-.1.1-.2.1-.4.2 0 .4 0 .4-.3.1-.3.2-.7.4-1 .1 0 .1-.1.2-.1v.7c0 .2.3.4.5.4v.1c.1.5.8.3.7-.2-.1-.4-.2-.8-.2-1.1 0-.1.1-.2.1-.3h.1c0 .2 0 .4.1.6.1.4.7.3.8 0 0-.1.1-.2.1-.4.2.3.7.3.8-.1v-.1c.1.3.2.7.3 1 .1.3.6.2.5-.1-.1-.2-.1-.4-.1-.6.1-.1.2-.2.2-.3v-.1.2c.1.3.3.3.5.1 0 .1.1.1.1.2.1.2.4.2.5 0 .1.2.5.2.6-.1s.1-.5.1-.8v-.1c.1.2.1.3.2.5.1.1.2.2.3.1.1.1.1.2.2.3.2.3.6 0 .4-.3-.1-.2-.2-.5-.2-.7.2.2.5 0 .6-.2.1-.3.1-.6 0-.9h.2c0 .3.1.6.1.8.1.5.8.5.8 0 .2.1.5.1.6-.2v-.3c.1.3.2.6.4.9.2.3.8.1.6-.3-.1-.2-.1-.4-.2-.7 0-.2 0-.3.1-.5.1.4.3.7.4 1s.7.1.6-.2v-.1c.1 0 .2-.2.2-.3v-.5h.1v.5c0 .5.7.5.8.1-.1.4.5.6.7.2l.3-.9h.1v.9c0 .5.8.5.8 0 0-.3.1-.6.1-.9h.1c.1.5.2.9.3 1.4.1.4.7.3.7-.1.2 0 .4 0 .4-.3v-.1c0 .2 0 .4.1.6 0 .5.9.5.8 0v-.4c.1 0 .2-.1.3-.3 0-.1.1-.2.1-.3 0 .2.1.3.1.5.1.3.3.3.5.2 0 .2-.1.4-.1.6-.2.5.5.6.7.2.2-.5.5-1.1.6-1.7.1.2.1.3.2.5-.1.3-.2.5-.3.8-.1.3.4.5.6.2.1-.2.2-.5.4-.8.2.1.5 0 .5-.2.1.1.3 0 .4 0 .1.2.2.2.4.1v.1c-.1.4.4.6.6.4v.3c0 .3.4.4.5.1 0-.1 0-.2.1-.3.1.2.4.3.6.2.1 0 .2-.1.2-.2.2-.5.4-.9.5-1.4h.3c-.1.4-.1.8-.2 1.2-.1.5.6.7.8.2.1-.2.1-.4.2-.6h.1v.3c0 .3.5.3.5 0v.2c0 .4.6.5.7.1v-.2c.1.2.5.2.6-.1.1-.1.1-.2.1-.4.1 0 .3-.1.3-.2s.1-.1.1-.2c0 .3-.1.6-.1 1s.6.5.7.2c.1-.2.2-.4.2-.7-.1.2-.1.5-.2.7-.1.2.2.4.4.3.1.3.5.4.7.1 0-.1.1-.1.1-.2.1.2.3.2.5.1l.1-.1c0 .2.3.4.5.4.1.2.3.3.5.1l.4-.4c.1 0 .2-.1.2-.2V61l.3-.3c-.1.1-.1.2-.2.3-.1.1-.2.2-.2.3-.2.2.1.6.3.4.1-.1.2-.1.2-.2.1 0 .2-.1.3-.2h.1c.1.2.3.2.4.1l-.2.2c-.3.2.1.8.4.5.1-.1.2-.2.3-.2-.3.4.2.9.5.5.1 0 .1-.1.1-.2v.1c-.1.3.4.5.5.2.1-.2.2-.5.3-.7h.1c-.1.3-.2.5-.3.8-.2.3.3.6.5.4-.2.3.2.6.5.4.1-.1.1-.2.2-.3-.1.3.3.6.6.3.1-.1.2-.3.4-.4-.1.1-.1.2-.1.2-.2.2.1.5.4.5-.2.4.2.8.6.5l.6-.6.1.1c-.2.2-.4.4-.7.6-.4.2-.1.8.3.6.1-.1.2-.1.4-.2-.1.2-.2.3-.3.5-.2.3.2.6.5.3.1-.1.2-.2.2-.3.1.2.3.3.5.2.1-.1.2-.2.3-.2-.1.1-.2.3-.3.4-.3.4.2.9.6.6-.1.2.2.5.5.4.1-.1.3-.2.4-.3-.1.2.1.5.4.4v.3c0 .3.4.3.5 0 .1.1.2.2.4.2v.1c0 .1-.1.1-.1.2-.1.2.1.4.2.4.1.1.4.1.4-.2v-.1c.1-.1.2-.3.3-.4l.1.1c-.1.2-.2.5-.2.7-.1.3.2.5.4.4v.1c-.2.4.4.8.7.4 0-.1.1-.1.1-.2l-.3 1.5c-.1.3.3.4.4.1.1-.2.1-.3.2-.5.1.1.3.1.4 0-.2.3 0 .7.4.6-.1.2-.1.4-.2.6-.1.3.3.4.4.1 0-.1.1-.2.1-.3.1.1.3.1.4-.1v.2l-.1.1c-.2.1-.1.3 0 .5 0 .2.2.2.3.2.1 0 .1 0 .2-.1.2-.1.3-.2.5-.4-.1.1-.2.2-.2.3-.1.1-.1.3 0 .5-.1.2-.1.5-.2.7-.1.2.2.3.3.1.2-.3.3-.6.5-.9l.2-.2.1.1c-.1.2-.3.4-.4.6-.3.3.1.8.4.6.1 0 .1-.1.2-.2-.1.2-.1.4-.2.6-.1.4.4.5.6.3-.1.2-.1.5-.1.7 0 .1 0 .2.1.3-.2.4.5.8.8.4.1-.1.1-.2.2-.2-.1.1-.2.3-.2.4-.1.2.1.5.3.6 0 .1-.1.1-.1.2-.2.4.3.8.6.5.1 0 .1.1.2.1v.1c0 .1-.1.1-.1.1-.3.3.1.8.5.6l.2.2-.1.1c-.2.3.1.6.4.5 0 .1.1.1.2.1 0 0 0 .1-.1.1-.1.2 0 .3.1.4-.1.1 0 .2.1.3-.1.2-.2.3-.3.5-.2.3.1.5.4.4-.1.1-.1.2-.2.3-.2.4.3.7.5.4h.2s0 .1-.1.1c-.2.3 0 .6.3.7-.1.2-.2.3-.3.5-.3.4.3.8.6.5.1-.2.3-.3.4-.5 0 .1 0 .1.1.2-.2.2-.3.4-.5.6-.2.2-.1.6.2.6-.1.2 0 .5.3.5-.2.3.1.8.4.7.1 0 .1-.1.2-.1-.3.4-.4 1-.6 1.4-.1.3.3.4.5.2.1-.2.2-.3.3-.5 0 .1.1.2.1.3-.2.4-.4.7-.5 1.1s.3.6.5.3c.1-.1.2-.3.3-.4-.2.3-.4.7-.6 1-.2.4.3.9.6.5 0 0 0-.1.1-.1-.2.2-.3.4-.5.6-.3.3.1.8.4.7-.1.2-.3.4-.4.7-.2.3.1.5.3.5-.1.3.4.5.6.2.1-.1.2-.2.3-.4-.1.3-.3.6-.4.9-.1.3.2.5.4.4l-.6 1.2c-.1.2.3.4.4.2 0 0 0-.1.1-.1.1.1.2.1.4 0l-.6 1.2c-.2.3.2.6.4.4 0 0 0 .1-.1.1-.1.2 0 .4.2.4v.1c-.1.2.1.4.2.4-.1.3-.1.6-.2.8-.1.3.2.4.4.3h.1c0 .2-.1.5-.1.8 0 .2.3.3.4.2l.1.1c-.1.2-.2.4-.4.6-.1.2.2.5.4.3l.2-.2v.2c-.1.2-.2.4-.3.5-.2.4.4.8.6.4.2-.3.4-.7.6-1.1-.1.5-.2 1-.2 1.5-.1.4.6.4.6.1.1-.4.3-.9.4-1.4.6-1.8 1.3-4 1.2-5.9 1.2-3.7 2.4-4.7 2.4-4.7s2.7-15.1-7.5-32z" fill="#0b1117" stroke-width="none" opacity="1" stroke="none"></path><path id="SvgjsPath10439" d="M61.6 86.9c-.1-.1-.3-.1-.3.1.5 1.4 1.5 2.7 2.9 3.3.2.1.4-.2.2-.4-1-.9-2-1.8-2.8-3zm-.4-3.3c-.2-.3-.4-.7-.6-1.1.6.7 1.3 1.4 2.1 2 .2.1.3-.1.2-.2-1.2-1.3-2.3-2.5-3.3-3.9-.2-.4-.5-.9-.8-1.3l-.1-.1c-.2-.2-.3-.4-.4-.7-.1-.2-.4 0-.3.2.2.4.4.8.7 1.2.3 1.5 1.2 3 2 4.2.4.7.9 1.4 1.4 2.1-1.4-1.2-2.7-2.5-3.8-4.1-.1-.1-.3-.1-.3 0-.1 0-.2.1-.2.2 0 3.6 3.2 7.4 5.7 9.7.2.1.5-.1.3-.2-1-1.5-2.3-2.8-3.3-4.3-1-1.4-1.5-2.9-2-4.5 1.1 1.5 2.5 3 4.1 4h.2c.5.6 1 1.1 1.5 1.6.2.2.5-.1.3-.3-1.2-1.4-2.4-2.9-3.4-4.5zm-.2 9.8c.2.3.5.6.7.8.2.2.7-.1.5-.4-1-1.6-2.1-3.1-2.9-4.8-.9-1.8-1.6-3.8-2.1-5.8-.1-.2-.4-.2-.4.1.4 2.9 1.4 6 3.1 8.6-.1-.2-.2-.3-.3-.5-.2-.2-.5 0-.4.2.9 1.7 1.9 3.6 3.4 4.7.2.1.4-.1.3-.3-.5-.9-1.2-1.7-1.9-2.6zm.7-15.3c-1.2-1.6-2-3.4-2.7-5.3-.1-.2-.4-.1-.3.1.8 3.7 3.3 8.3 7 9.8.2.1.3-.2.2-.4-1.5-1.5-3.1-2.6-4.2-4.2zm1.4-2.3c-.1-.1-.1-.2-.2-.3-.3-.5-.6-1.1-.9-1.6-.6-1.2-1.1-2.4-1.6-3.7-.1-.2-.3-.2-.4-.1-.1-.1-.1-.3-.2-.4-.1-.2-.4 0-.3.2.2.5.5 1.1.7 1.6.9 3.5 3.5 7.7 6.6 9.2.2.1.4-.2.3-.3-1.3-1.6-2.9-2.9-4-4.6zm4 1.1c-.2-.3-.4-.7-.7-1-.1-.1-.3 0-.2.1.3.8 1 1.5 1.6 2.1.1.1.3-.1.2-.2-.3-.3-.6-.6-.9-1zM62.3 66c-.1-.2-.4-.2-.4.1.8 4.1 3 8.1 6.6 10.4.2.1.3-.2.2-.3-3.5-2.6-4.9-6.4-6.4-10.2zm7.2 8.5c-1.8-2.9-2.8-6.1-4.1-9.3-.1-.2-.3-.2-.3-.1-.7-1.6-1.4-3.1-1.9-4.8 0-.2-.3-.1-.3 0 .2 2.3 1.1 4.9 2.6 6.8.8 3 2 6.1 4 8.4.2.2.5 0 .4-.3-.1-.4-.1-.3-.4-.7zm-2.1-10.8c-.8-2-1.3-4.2-2-6.2-.1-.2-.4-.1-.4.1.7 4.3 2 9.6 5.2 12.8.2.2.6-.1.4-.3-1.2-2.1-2.4-4.1-3.2-6.4zm2.8-1.9c-.1-.2-.3-.1-.3 0 .1 2.8 1.5 5.8 3.5 7.7.2.2.5-.1.3-.3-1.5-2.3-2.5-4.7-3.5-7.4zm3.3.6c-.1-.2-.5-.2-.4.1.2 1.5.8 3.1 1.4 4.5.1.3.7.2.5-.1-.5-1.5-.9-3-1.5-4.5zm3.8-13.9c0-.1 0-.1 0 0 0-.1.1-.1.1-.2.2-1.3.5-2.6 1.2-3.8.1-.2-.2-.3-.3-.2-.8 1.2-1.3 2.5-1.2 3.9-.1 0-.2 0-.2.1-1.5 5.3-.8 10.8 1.4 15.8.1.2.4.1.3-.2-1.7-5-1.9-10.1-1.3-15.4zm3 9.4c-.1 2 0 4.1.4 6 .1.3.4.2.5-.1.1-1.9-.1-4.1-.4-6 0-.3-.5-.2-.5.1zm2.7.4c-.1-2 .1-4 .3-6 0-.2-.2-.2-.2-.1-.7 2.6-.7 5.3-.3 8 0 1 .1 2 .3 3 0 .2.3.1.3 0 .1-1.5.1-3.1 0-4.6 0-.3-.2-.3-.4-.3zm8.2-16.8c-1.3 2.2-2.2 4.8-2.7 7.3.1-1 .3-2 .4-3.1 0-.2-.3-.4-.4-.1-1.6 5.3-1.8 11.1-.9 16.5 0 .2.4.2.4 0-.2-3.2-.2-6.3.1-9.4 0 .9 0 1.7.1 2.6 0 .2.3.2.3 0 .2-4.9 1.1-9.1 3-13.6.2-.2-.2-.5-.3-.2zm.7 11.4c-.7 2.5-1 5.1-1.2 7.6 0 .3.5.4.5.1.4-2.5.9-5.1 1.1-7.6.1-.3-.3-.4-.4-.1zm2.1 3.2c-.5 1.3-.9 2.8-.9 4.2 0 .3.3.3.4.1.5-1.3.7-2.8.9-4.2-.1-.3-.4-.3-.4-.1zm2 .8c-.3 1-.2 2.1-.2 3.1 0 .2.4.2.4 0 0-1 .1-2 .1-3 0-.3-.3-.3-.3-.1zm1.3-13.6c0 5.8-.1 11.7.4 17.5 0 .2.3.2.3 0 .7-5.7.3-11.8-.4-17.5 0-.2-.3-.2-.3 0zm3.8.6c0-1-.1-2-.2-2.9 0-.1-.1-.1-.1 0-.1 1.6-.3 3.2-.1 4.8 0 .1.2.1.2 0 0-.2 0-.4.1-.5.2 5-.1 10-.1 15.1 0 .3.4.3.5 0 .7-5.4.4-10.9-.1-16.3 0-.2-.1-.2-.2-.2zm3.4 11.6c.6-3.7.6-7.4.3-11.2 0-.1-.2-.1-.2 0 .1 3.7-.1 7.4-.3 11.1-.1.2.1.3.2.1zm2.6-9.2c.1 3.2-.2 6.4-.4 9.7 0 .2.4.3.4.1.5-3.2.5-6.5.3-9.7 0-.3-.3-.3-.3-.1zm3.2 1.4c-.7 4.3-1.6 8.5-2.1 12.8 0 .3.3.3.4.1 1.6-3.9 2.2-8.6 2.2-12.8 0-.3-.5-.4-.5-.1zm2.4 1.5c0-.2-.4-.3-.4 0-.3 2.3-.6 4.5-1.1 6.8-.4 1.8-1.2 3.6-1.2 5.5 0 .3.4.3.4 0 .3-2.2 1.3-4.3 1.7-6.6.4-1.9.6-3.8.6-5.7zm.5 8.3c-.4 1.3-.6 2.6-1.1 3.8-.1.2.3.4.4.2.7-1.1 1.2-2.6 1.1-4 0-.2-.4-.3-.4 0zm2.4-2.2c-.6 2-1 4.1-1.5 6.1-.1.2.2.3.3.1.6-2 1.2-4 1.5-6.1 0-.2-.2-.3-.3-.1zm.8 5.9c1.9-4 2.9-8.4 3.1-12.8.1 0 .2 0 .2-.2.1-1.4-.2-2.8-.3-4.2 0-.3-.4-.3-.4 0 0 6-1.1 11.4-3 17 0 .3.3.5.4.2zm4.1-4.1c.7-2.3 1.1-4.7 1.2-7.1.1 0 .2 0 .2-.2.4-1.6.2-3.3 0-4.9 0-.2-.3-.1-.3 0 0 1.6-.2 3.2-.1 4.8 0 .1 0 .1.1.2-.3 2.4-.7 4.8-1.3 7.2-.1.1.1.1.2 0zm1.3-.5c-.8 2.5-1.8 4.9-3.2 7.2-.1.2.1.3.3.2 1.8-2.1 2.9-4.6 3.3-7.4 0-.2-.4-.2-.4 0zm1.2 1.8c-1.1 2.2-2.2 4.3-3.4 6.4-.1.2.2.4.3.2 1.6-1.7 3-4.1 3.6-6.4 0-.3-.4-.5-.5-.2zm3.6-3.5c-.4 2.2-.9 4.3-1.8 6.3-.8 1.8-2.1 3.3-3.2 5-.2.2.2.4.3.3 3.2-2.7 5.1-7.4 5.2-11.5 0-.3-.4-.4-.5-.1zm2.1 4.9c.1-.2-.3-.4-.4-.2-.3.5-.6 1.1-.9 1.6l-.1.1c0 .1-.1.1-.1.2-1 1.8-2.1 3.6-3.6 5.2-.2.2.1.6.3.3.1-.1.2-.2.3-.4-.1.2.1.3.3.2 1.1-1.2 2-2.5 2.6-4 .8-1 1.3-2 1.6-3zm-.6 7.1c2.8-3.6 4.5-7.9 4.6-12.5 0-.2-.3-.2-.3 0-.8 4.4-2.2 8.4-4.6 12.3-.1.1.1.3.3.2zm2.2.1c.1-.2-.2-.4-.3-.3-.6.6-1.1 1.3-1.7 2-.5.6-1.1 1.2-1.5 1.9-.1.2.1.5.3.3.7-.5 1.2-1.2 1.7-1.8.6-.7 1.1-1.3 1.5-2.1zm-3.1 1.8c.2-.2.3-.5.5-.8.1-.2-.2-.4-.3-.2-.3.3-.5.6-.8.9-.2.2-.5.6-.5.9 0 .3.4.5.6.2v-.2c.1-.4.4-.6.5-.8zm-.4-1.9c-.6.4-1.1 1-1.5 1.6-.2.2.2.5.4.3.5-.5 1-1 1.3-1.7.1-.1 0-.3-.2-.2zm7 .7c.1-.2-.2-.5-.4-.3-.9.9-1.6 1.9-2.5 2.8-.9.9-1.8 1.7-2.7 2.6-.2.2.1.5.3.4 2-1.4 4.1-3.4 5.3-5.5zm.6 1.3c.1-.2-.2-.4-.4-.3-1.7 1.6-3.2 3.4-4.9 5.1-.1.1.1.4.2.3 1.9-1.4 3.9-3.1 5.1-5.1zm-1.3 4.9c.1.1.2.2.3.1 1.9-2.1 3.3-4.6 4.4-7.2.1-.2-.3-.4-.4-.2-1.1 2.4-2.5 4.5-3.9 6.6 0 0 0-.1.1-.1.1-.3-.3-.4-.4-.3-.5.5-.9 1.1-1.4 1.6-.6.5-1.2 1-1.8 1.4-.3.2 0 .6.3.4.9-.4 2.1-1.2 2.8-2.3zm1.4.7c.1-.2-.2-.4-.3-.3-1.1 1.1-2.1 2.4-3.2 3.6-.2.2.1.6.4.4 1.1-1 2.4-2.3 3.1-3.7zm5.4-2c0-.1 0-.1 0 0 .2-.7.4-1.3.6-2 0-.2-.2-.2-.2-.1-.9 2.2-1.9 4.3-3.1 6.3v.1c-.9 1.4-2 2.7-3.3 3.9-.1.1.1.4.2.3 2.8-2 5.1-5 5.8-8.5zm-2.9 7.8c-1 1-2 2.1-2.9 3.1-.2.2.1.5.3.3 1.5-1.4 3.2-2.8 4.5-4.4.1-.2-.1-.6-.3-.4-.2.2-.4.3-.6.5 1.6-1.8 2.6-4.2 3.1-6.5.1-.3-.3-.4-.4-.1-.9 2.6-2.3 4.9-3.9 7.2-.1.1 0 .2.2.3zm1.9 1c.1-.1 0-.2-.1-.3 1.4-1.6 2.2-3.9 2.5-6 0-.2-.3-.4-.4-.1-.5 2.1-1.5 3.9-2.5 5.8-.1.1 0 .2.1.3-1.5 1.3-2.8 2.8-4.5 4-.2.2 0 .5.2.3 1.8-1 3.6-2.3 4.7-4zm2.7 2.1c-.7 1.1-1.5 2.1-2.3 3.2-1.2.9-2.2 1.9-3.6 2.7-.2.1 0 .4.2.3.6-.3 1.3-.6 1.9-1l-.1.1c-.1.1.1.3.2.2 1.6-1.5 3-3.3 4.1-5.2.1-.3-.2-.5-.4-.3zm-3.2 6.8c.1-.2-.1-.4-.3-.3-.5.2-.9.6-1.3.9-.4.3-.9.6-1.3.9-.1.1-.1.4.1.3.9-.4 2.2-.9 2.8-1.8zm2 0c.1-.2-.2-.3-.3-.2-1.3 1.6-2.6 3.1-4.4 4.1-.2.2 0 .5.2.4 2-.7 3.7-2.3 4.5-4.3zm2-3.8c0-.2-.3-.3-.4-.1-.5 2-1.1 4-2.1 5.8-.9 1.7-2.3 2.9-3.4 4.4-.1.2.1.4.3.3 3.4-1.9 5.5-6.7 5.6-10.4zM73.9 62.3c-1.4-4.7-1.7-8.9-1-13.7 0-.2-.3-.3-.4-.1-1.5 4.5-1.1 9.7 1.1 13.9.2.1.4.1.3-.1zm8-17.7c-2.7 4.4-2.7 9.6-2 14.6 0 .2.4.2.4 0-.1-5-.4-9.8 2-14.4.1-.2-.3-.5-.4-.2zm-2.1 4.3c.1-.3-.3-.4-.4-.1-1.3 4.4-1.8 9.5-.2 13.9.1.2.5.2.4-.1-.4-4.8-.8-8.9.2-13.7zm-2.7 15.9c-.8-2.8-1.2-5.7-1.3-8.7 0-.1-.2-.2-.2-.1-.3-2.8-.4-5.6-.3-8.5 0-.3-.4-.3-.4 0-.4 3.5-.2 7 .6 10.5.1 2.5.5 5 1.2 7.4.1.2.4.3.5.1.1-.2.2-.3.2-.5s-.2-.3-.3-.2zm-2.6-5.3c.1 2.6.6 5.2 1.4 7.6.1.3.5.2.4-.1-.6-2.5-.9-5-1.4-7.6-.1-.2-.4-.2-.4.1zm57.1 6.9c-.4.5-.7 1.1-1.1 1.6-.4.6-.9 1.1-1.4 1.6-.2.2.1.4.3.3l.3-.3c.1.1.1.1.2 0 3.1-2 4.4-6 5.6-9.3.1-.2-.3-.3-.4-.1-.9 2.3-2 4.3-3.3 6.3.1-.2-.2-.2-.2-.1zm5.2 5.6c-1.3 2.6-2.7 5-4.6 7.2-.2.2.1.5.3.3 2.1-2.1 3.8-4.6 4.6-7.4.1-.2-.2-.3-.3-.1zm-4.5.7c2.4-2.1 3.9-4.8 4.8-7.9.1-.2-.3-.3-.4-.1-1.1 2.8-2.7 5.4-4.6 7.8-.1.1.1.3.2.2zm3.5 14.8c-.1.1 0 .2.1.2 2-1.7 3.7-3.8 5.2-6-1 1.8-2.2 3.5-3.7 5-.1.1 0 .3.2.2 1.9-1.4 3.2-3.3 4.2-5.4.1-.2-.1-.4-.3-.4 0-.1.1-.1.1-.2.1-.2-.2-.4-.3-.2-.6.9-1.3 1.7-1.9 2.5-.1-.1-.1-.1-.2 0-1.6 1.1-3 2.4-4.7 3.4-.2.2 0 .5.2.4 1.1-.5 2.2-1.2 3.1-2-.6.8-1.3 1.6-2 2.5zm4.6-.9c.1 0 .1-.1.1-.1.1-.1-.1-.3-.2-.2 0 .1-.1.1-.1.2-.1 0 0 .2.2.1zM86.6 44.4c-.8 2.3-1.3 4.8-1.2 7.3-.1 0-.2 0-.2.1-.2 2.6-.1 5.1.2 7.6-.1.8.1 1.6.1 2.3 0 .2.4.2.4 0v-.2c.1 0 .2-.1.2-.2-.1-.4-.1-.8-.1-1.2 0-.4 0-.9-.1-1.3 0 0 0-.1-.1-.1-.2-1.7-.3-3.4-.3-5.2 0 .2 0 .4.1.6 0 .2.3.1.3 0-.1-3.3.2-6.5 1.2-9.6 0-.3-.4-.4-.5-.1zm5.6-3.4c-1.4 2.7-2.2 5.6-2.2 8.6 0 .2.3.3.4 0 .4-2.9 1.1-5.7 2.3-8.4 0-.2-.4-.5-.5-.2zM84 53.3c-.2 2.8 0 5.8.7 8.5 0 .2.3.1.3 0-.3-2.8-.5-5.6-.6-8.5 0-.2-.3-.2-.4 0zm21.5.5c-.4 2.1-.6 4.2-1.1 6.2-.1.3.4.4.5.1.7-2 1.1-4.2 1-6.3 0-.1-.4-.2-.4 0zm1.6 2.9c-.5 1.1-.8 2.4-1.1 3.5-.1.3.3.4.4.1.4-1.1.9-2.3 1.1-3.5 0-.2-.3-.3-.4-.1zm8 .1c.3-1.3.5-2.7.8-4 0-.1-.1-.1-.1 0-.3 1.3-.5 2.7-.8 4-.1.1 0 .1.1 0zm4.4-2.2c-.9 2.9-2 5.6-3.9 8-.1.2.1.4.3.3 2.1-2.3 3.6-5 4.1-8.1 0-.3-.4-.4-.5-.2zm1.9 1.7c.1-.2-.3-.4-.4-.2-1.1 1.9-2 4.1-2.8 6.2-.1.2.3.4.4.2 1-2 2.1-4.1 2.8-6.2zm-52.5 1.1c-.1-1.8-.1-3.6.2-5.5 0-.2-.3-.3-.3-.1-.6 1.8-.8 3.8-.3 5.6 0 .3.4.3.4 0zm.1 5.2c-.8-2.9-1.2-5.9-1.3-8.9 0-.2-.4-.2-.4 0-.2 3.1.2 6.1 1.4 9 .1.1.4.1.3-.1zm-2.1-2c-.1-.3-.1-.5-.2-.8.1.2.1.3.2.5s.3 0 .3-.1c-.5-1.6-.9-3.1-1-4.8 0-.2-.3-.2-.3 0 0 .8.1 1.5.2 2.2-.1-.3-.2-.5-.3-.8-.1-.2-.3-.1-.2.1.3 1.3.6 2.6 1 3.8.1.1.3.1.3-.1zm-1.2 4c-.5-1.8-1-3.6-1.2-5.4 0-.2-.4-.2-.4 0 .2 1.9.5 3.8 1.3 5.6 0 .2.4 0 .3-.2zm.8 8.4c-1.9-3.2-3.3-6.3-4.1-10-.1-.2-.5-.2-.5.1.3 3.7 1.8 7.3 4.2 10.2.2.1.6-.1.4-.3zM64 74.5c-1.3-2.6-2.4-5.2-3.1-8.1-.1-.3-.5-.2-.4.1.5 2.9 1.5 5.7 3.2 8.2.1.1.4 0 .3-.2zm-4.9-2.7c-.1-.2-.5-.1-.4.2 1.3 3.5 3.6 7 6.8 8.9.2.1.4-.2.3-.3-2.8-2.6-5.1-5.3-6.7-8.8zm3.6 10.7c.2.2.5-.1.3-.3-1.8-2.3-3.5-4.5-4.9-7.2-.1-.2-.5-.1-.4.2 1.1 2.8 2.7 5.4 5 7.3zm10.2-18.7c-1.9-4.3-2.7-8.3-1.9-13 0-.3-.3-.4-.4-.1-1.3 4.4-.8 9.6 1.8 13.4.3.3.7 0 .5-.3zM135 78.2c2.6-2.5 4.1-5.9 4.9-9.4.1-.2-.3-.3-.3-.1-1 3.5-2.7 6.4-4.8 9.3-.2.1.1.3.2.2zm3.6 5.1c1.5-1.4 2.5-3.2 3.2-5.2.1-.3-.4-.4-.5-.1-.7 1.8-1.8 3.5-3 5-.1.2.1.5.3.3zm-1.6 8.5c-.1.1 0 .4.2.3 2.1-1.4 3.6-3.6 4.8-5.8.1-.2-.2-.5-.4-.2-1.2 2.2-2.8 4-4.6 5.7zm2.6 2.5c-.9 1.3-1.9 2.4-2.9 3.7-.1.2.1.3.3.2 1.2-.9 2.1-2.4 2.8-3.8.2-.1 0-.2-.2-.1zm-9.4-28.2c1.9-2.2 3.2-4.8 3.9-7.6.1-.2-.2-.3-.3-.1-1 2.6-2.3 5.1-3.9 7.5-.1.2.2.3.3.2zm-44.5-24c-1 1.3-1.7 2.7-2 4.3 0 .2.2.2.2.1.6-1.5 1.3-2.9 2.1-4.2.2-.2-.1-.4-.3-.2zm-7.1 8c.7-2.3 1.7-4.4 2.9-6.5.1-.2-.2-.5-.4-.3-1.6 1.9-2.6 4.2-2.9 6.6 0 .3.3.4.4.2zm-2.3-1.9c.2-.5.2-1.1.3-1.6 0-.1-.2-.2-.2-.1-.1.5-.2 1.1-.3 1.6 0 .1.2.2.2.1zm6.7-1.9c.5-1.2.8-2.4 1.2-3.7.1-.2-.2-.3-.3-.1-.4 1.2-.8 2.4-1.1 3.6-.1.2.1.3.2.2zm1.4 2.5c.5-1.3.9-2.7 1.5-4 .5-1.2 1.2-2.2 1.8-3.4.1-.2-.2-.4-.3-.3-1.8 1.9-3 4.9-3.4 7.5 0 .3.3.4.4.2zm3.4-3.1c.6-1.6 1.1-3.1 2-4.5.1-.2-.2-.4-.3-.2-1 1.3-1.8 2.9-2.1 4.6.1.3.4.3.4.1zm4.4 2.5c.4-2.1.9-4.2 1.6-6.2.1-.3-.3-.4-.4-.1-.8 2-1.4 4.1-1.5 6.3 0 .1.3.2.3 0zm3.7-8.1c-1.3 2.5-2.1 5.5-1.9 8.4 0 .2.3.3.3 0 .4-2.9.9-5.5 1.8-8.3.1-.2-.1-.3-.2-.1zm.8.9c-.5 2.3-.9 4.6-.9 7 0 .2.3.2.3 0 .2-2.3.4-4.6.8-6.9.1-.2-.2-.3-.2-.1zm2.1-1.3c-.2 1.8-.4 3.6-.3 5.4 0 .2.3.2.3 0 .3-1.8.3-3.6.3-5.4-.1-.2-.3-.2-.3 0zm.5 2.3c-.1 1-.2 2-.2 3 0 .2.3.2.3 0 .2-1 .1-2.1.2-3.1 0-.1-.3-.1-.3.1zm2.7 0c0 .4 0 .9.1 1.3 0 .1.2.1.2 0 .1-.4.1-.9.1-1.3-.1-.2-.4-.2-.4 0zm3.5.9c-.1-.6-.2-1.2-.4-1.8 0-.2-.3-.1-.3.1.1.6.2 1.2.4 1.7.1.1.3.1.3 0zm1.4 1.1c.2-.8 0-1.9-.2-2.7 0-.2-.3-.1-.3 0 .1.9 0 1.8.1 2.7 0 .2.3.2.4 0zm.5-2.5c.2.7.3 1.4.4 2.2 0 .1.2.1.2 0 .1-.8-.1-1.5-.3-2.2-.1-.3-.4-.2-.3 0zm2 1.6c0-.6-.2-1.2-.5-1.8-.1-.1-.2 0-.2.1.2.6.3 1.1.4 1.8.1 0 .3 0 .3-.1zm4.1 1.6c-.1-1-.4-2-.7-3 0-.1-.2-.1-.2.1.2 1 .2 2 .6 2.9 0 .2.3.2.3 0zm1 1c.2-1.1-.1-2.2-.4-3.3-.1-.2-.4-.2-.4 0 .1 1.1.2 2.2.4 3.2.1.3.4.3.4.1zm1.3-.6c.1-.8-.1-1.7-.3-2.4-.1-.2-.4-.1-.3.1.2.8.2 1.5.4 2.3-.1.1.1.2.2 0zm1.2 1.3c0-1-.2-2.2-.3-3.2 0-.2-.4-.2-.3 0 .1 1.1.1 2.2.3 3.2.1.2.3.1.3 0zm.5 3.5c0 .2.3.3.4 0 .6-2.2.3-4.5-.2-6.7-.1-.2-.4-.1-.4.1.4 2.2.2 4.4.2 6.6zm3.4-.3c.3-1.7.1-3.5-.2-5.2 0-.2-.3-.2-.3 0 .1 1.7 0 3.4.1 5.1.1.3.4.4.4.1zm2.1 1.5c.5-1.4.4-3.3.4-4.8 0-.2-.3-.2-.4 0-.2 1.5-.7 3.3-.3 4.8.1.1.3.1.3 0zm1.4.4c.4-1.2.3-2.5.5-3.7 0-.2-.3-.2-.3 0-.2 1.2-.6 2.5-.5 3.7 0 .2.2.2.3 0zm1.9-.6c0-.5-.1-1-.2-1.5 0-.1-.1-.1-.1 0 .1.5.1 1 .3 1.5-.1.1 0 .1 0 0zm1.2 1.8c.3-1 .2-2.1.2-3.1 0-.2-.4-.2-.4 0 .1 1-.1 2-.1 3-.1.2.2.3.3.1zm.6 1.3c.6-1 .8-2.4.8-3.5 0-.3-.4-.3-.4 0-.1 1.2-.4 2.3-.7 3.5 0 0 .3.1.3 0zm1.3 1c.3-.7.4-1.6.5-2.3 0-.2-.3-.3-.3-.1-.2.8-.4 1.6-.5 2.4 0 .1.2.1.3 0zm1.6 1.4.3-.6c0-.1-.1-.1-.1-.1-.1.3-.2.5-.2.7-.1.1-.1.1 0 0z" fill="#030508" stroke-width="none" opacity="1" stroke="none"></path><path id="SvgjsPath10440" d="M115.6 53.8c.3-.7.3-1.5.5-2.2 0-.1-.1-.1-.1 0-.2.7-.4 1.5-.5 2.2h.1zm.5.8c1-2.5 1.2-5.2 1.3-7.9 0-.2-.2-.2-.2 0-.3 2.6-1 5.2-1.4 7.8-.1.3.2.3.3.1zm2.2-.5c.4-.7.4-1.5.5-2.2.2-.9.3-1.8.4-2.6 0-.3-.4-.4-.4-.1-.2.9-.4 1.8-.6 2.8-.1.7-.4 1.4-.3 2.2.1 0 .3 0 .4-.1zm1.1.1c.7-1.2.8-2.9 1.1-4.2.1-.3-.4-.5-.5-.1-.3 1.3-1 2.9-1 4.3-.1.1.2.2.4 0zm1.1-1.3c.2-.7.4-1.5.6-2.3.1-.2-.3-.3-.3-.1-.2.8-.3 1.6-.4 2.3-.1.2 0 .2.1.1zm.5 3.3c.7-1.4 1-3.1 1.4-4.6.1-.3-.4-.5-.5-.2-.5 1.5-1 3.1-1.2 4.7 0 .1.3.2.3.1zm1.2 0c.9-1.4 1.5-3.2 2.1-4.7.1-.2-.2-.4-.3-.2-.8 1.5-1.8 3.1-2.3 4.7-.1.3.3.4.5.2zm.7.5c-.1.2.2.2.2.1.7-1 1.1-2.2 1.4-3.4.1-.2-.2-.2-.3-.1-.3 1.2-.8 2.3-1.3 3.4zm1.4.7c.3-1 .6-2 .9-2.9.1-.2-.3-.3-.3-.1-.3 1-.5 2-.7 3 0 .1.1.1.1 0zm.1 3.3c1.3-2.3 2-5.3 2.5-7.9 0-.2-.3-.3-.3-.1-.6 2.7-1.7 5.2-2.5 7.8-.1.3.2.4.3.2zm1.4.4c.7-1.8 1.1-3.8 1.6-5.7.1-.3-.3-.4-.4-.1-.6 1.9-1.2 3.8-1.5 5.7-.1.2.2.3.3.1zm.7 1.2c.8-2 1.2-4.2 1.7-6.2.1-.2-.2-.3-.3-.1-.6 2-1.4 4.1-1.8 6.2-.1.3.3.4.4.1zm1 1.1c.9-2 1.4-4.3 2-6.5.1-.3-.4-.4-.4-.1-.6 2.1-1.5 4.3-1.8 6.5-.1.2.2.3.2.1zm2 1.2c.1-.1 0-.2-.1-.3 1.2-2.5 2.1-5.2 2.5-8 0-.2-.3-.4-.4-.1-.7 2.8-1.6 5.6-2.5 8.4-1.3 1.3-2.4 2.6-4 3.6-.3.2 0 .7.3.5 1.6-1.1 3.3-2.4 4.2-4.1zm.5 2.1c.2-.3.4-.6.6-1-.2.5-.4 1-.5 1.5-.1.3.3.5.5.2 1.1-1.7 1.9-3.9 2.7-5.8.2-.3-.4-.7-.5-.3-.4.9-.9 1.8-1.4 2.7.6-1.4.9-3 1.2-4.4.1-.3-.4-.4-.4-.1-.6 2.5-1.8 4.6-2.6 7-.2.3.2.4.4.2zm.7 2.3c.1.1.2.1.3-.1 1.4-1.9 2.3-4.4 3.2-6.6.1-.2-.3-.4-.4-.2-.9 2-2 3.9-2.9 5.9-1.1 1.1-2.1 2.3-3.2 3.4-.2.2.1.5.3.3 1-.7 2-1.6 2.7-2.7zm1 .9c-.1.2.3.4.4.2.6-.8.9-1.8 1.3-2.8.4-.9.9-1.8 1.3-2.8.1-.3-.3-.5-.4-.2-.5 1-1 1.9-1.4 2.9-.4.9-1 1.8-1.2 2.7zm-18-14.7c.6-2.6 1-5.2 1.4-7.8.1-.3-.4-.5-.5-.1-.7 2.6-1.3 5.2-1.4 7.9 0 .2.4.2.5 0zm-4.4-8.9c-.7 4.1-1.1 8.4-1.5 12.6 0 .2.3.2.3 0 .9-4 1.6-8.4 1.6-12.6-.1-.2-.4-.2-.4 0zm-2.1 1.8c-.2 3.8-.3 7.7-.8 11.5 0 .2.2.2.3 0 .7-3.8 1.1-7.7.9-11.5 0-.3-.4-.3-.4 0zm-1.8 1c.3-1 .2-.5.4-1.5 0-.2-.3-.2-.3 0-1.2 3.7-2.2 7.9-2.3 11.7 0 .2.3.2.3 0 .5-1.9.8-3.9 1.1-5.8.2-.9.4-1.8.5-2.7.1-.2.2-1.1.3-1.7zm-2.5.1c-.4 2.7-.8 5.4-.7 8.1-.1 0-.2 0-.3.2-.4 1-.5 2.2-.7 3.3-.1.4.6.6.7.2.2-1.1.5-2.3.4-3.4.1 0 .2 0 .2-.2.4-2.7.5-5.5.8-8.2.1-.2-.4-.2-.4 0zm-1.4-1.8c-.4 3-.9 6.1-1.1 9.2v-.4c0-.2-.3-.2-.4 0-.2 1.7-.3 3.4-.4 5.1 0 .2.3.2.3 0 .2-1.2.4-2.4.5-3.6.1.1.3.1.3-.1.6-3.4.8-6.8 1.2-10.2 0-.2-.4-.3-.4 0zm-3.3-.9c-.4 3.8-.9 7.7-.9 11.5 0 .2.3.2.3 0 .7-3.8.8-7.7 1.1-11.5 0-.3-.5-.3-.5 0zm-2.5 2.4c-.3 3.1-.5 6.5.2 9.6 0 .2.3.1.3 0 .2-3.2-.2-6.4.1-9.6-.1-.4-.6-.4-.6 0zm-1.5-.8c0-.2-.3-.2-.3 0-.3 3.6-.5 7.4.1 11 0 .2.3.1.3 0 0-3.7-.3-7.3-.1-11zm-2.1.3c.1 3.7.2 7.3.6 10.9 0 .2.4.2.4 0 0-3.7-.3-7.3-.5-10.9-.1-.3-.6-.4-.5 0zm-3 1.1c-.4 2.8-.8 5.7-.6 8.6 0 .2.3.2.3 0 .4-2.8.5-5.7.7-8.5 0-.3-.4-.3-.4-.1zM87 51.2c-.2 2.7-.3 5.4.2 8 0 .2.3.1.3 0 .1-2.7-.2-5.3-.2-8 .1-.2-.3-.2-.3 0zm-1.6-.1c0 2.8 0 5.7.5 8.4.1.3.5.2.5-.1.1-2.8-.3-5.6-.5-8.4 0-.3-.5-.3-.5.1zm-.7 6.7c-.3-2.4-.8-4.8-.9-7.2 0-.3-.5-.3-.5 0 .1 2.8.1 5.8.9 8.6.1.2.3.2.4.2.1 1.2.3 2.4.6 3.5 0 .2.4.2.4 0-.2-1.7-.4-3.3-.8-4.9 0-.2-.1-.2-.1-.2zm-1.4-.2c0-.2-.4-.3-.4-.1-.1.6-.2 1.1-.2 1.7-.5-2.2-1.1-4.3-1.4-6.6 0-.2-.4-.2-.4.1.3 2.8.7 5.7 1.8 8.3 0 .1.1.1.2.1.1.4.2.7.3 1.1.1.4.7.2.6-.2-.5-1.4-.6-2.9-.5-4.4zm-6-.5c.3 1.5.7 3.1 1.3 4.5.1.2.4.1.4-.2-.3-1.5-.8-3-1.2-4.5 0-.3-.5-.2-.5.2zm-2.8-.1c.4 2.6 1.1 5.2 2.6 7.4.1.2.5.1.4-.2-1-2.5-1.9-4.8-2.3-7.4-.1-.4-.7-.3-.7.2zm-1.6.9c.5 2.6 1.2 5.2 2.7 7.5.1.2.4.1.3-.1-.9-2.5-1.9-4.9-2.6-7.5 0-.3-.4-.2-.4.1zm-1.4 10.3c0-.2-.1-.2-.1-.3-.8-2.1-1.7-4.1-2.2-6.3-.1-.3-.5-.2-.5.1.5 2.2 1.1 4.5 2.2 6.4.2 1.1.5 2.2 1.1 3.1.2.3.5 0 .4-.2-.3-.9-.6-1.9-.9-2.8zm-4-5.2c1 2.8 2 5.7 3.6 8.2.1.1.3.1.3-.1-1-2.8-2.3-5.5-3.4-8.2-.2-.3-.6-.2-.5.1zm-.5 3c.6 2.3 1.2 4.7 2.8 6.6.2.2.5 0 .4-.2-.9-2.2-2.1-4.2-2.8-6.5-.1-.3-.5-.2-.4.1zm1.7 7.3c.1.1.1.2.2.2.1.2.3 0 .3-.2-.8-1.7-1.7-3.4-2.2-5.2-.1-.3-.5-.2-.4.1.4 1.5.9 2.9 1.6 4.2-.1 0-.2.1-.2.2.1 1.1.7 2.2 1.1 3.2.2.4.7.1.6-.3-.5-.7-.7-1.5-1-2.2zm-2.4.6c0-.1-.1-.1-.1-.1-.5-.9-1-1.7-1.4-2.6-.1-.3-.5 0-.4.2.7 1.5 1.3 3.1 2.2 4.4.3.7.7 1.4 1 2 .1.2.5 0 .4-.2-.6-1.2-1-2.5-1.7-3.7zm-.2 4.7c.2.2.5 0 .4-.3-1.2-1.8-2.5-3.4-3.3-5.4-.1-.2-.4-.1-.3.1.6 2 1.5 4.3 3.2 5.6zm-.2 2c-.1-.2-.2-.4-.4-.7 0 0 .1 0 .1.1.2.2.5-.2.3-.4-1.2-1.4-2.4-2.6-3.1-4.2-.1-.2-.5-.1-.4.2.5 1.4 1.3 2.8 2.4 3.8 0 .1-.1.1 0 .2.2 1 1 1.9 1.7 2.7.2.2.5-.1.3-.3-.3-.5-.6-.9-.9-1.4zm-1.1 1.1c.2.1.4-.2.2-.3-1.2-1.4-2.4-2.6-3.2-4.3-.1-.2-.5-.1-.4.2.8 1.6 1.8 3.5 3.4 4.4zm-1-.4c-.1-.2-.3-.1-.3.1.1.4.3.8.5 1.2 0-.1-.1-.1-.1-.2-.4-.5-.8-1.1-1.2-1.7-.2-.2-.5 0-.4.2.7 1 1.4 2.2 2.4 2.9h.1c.2.2.3.5.5.7.1.2.4-.1.3-.2-.7-.9-1.3-1.9-1.8-3zm.7 5c-.1-.3-.1-.6-.2-.8.1 0 .1.1.1.1.1.1.2-.1.2-.2-.2-.3-.4-.6-.6-.8-.3-.8-.6-1.5-1-2.2-.1-.2-.5-.1-.4.2 0 .1 0 .2.1.3-.1 0-.3.1-.2.3.2.3.3.6.5.9.3 1 .6 2 1.1 2.9.2.3.6.1.5-.2 0-.2 0-.4-.1-.5zm-1.1.1c.1.6.4 1.1.8 1.5 0 0 .1 0 .1-.1-.4-.4-.7-.8-.9-1.4.1-.1 0 0 0 0zm49-29.9c-.4 1.5-.8 2.8-1.5 4.2-.2.3.3.6.5.3.8-1.2 1.5-2.9 1.5-4.4 0-.3-.4-.3-.5-.1zm1.2 1.4c-.7 1-1.1 2.3-1.5 3.5-.1.2.3.4.4.2.5-1.1 1.1-2.3 1.4-3.5.1-.3-.2-.4-.3-.2zm3.2-.8c-1 1.4-1.9 2.8-2.8 4.3-.1.2.2.4.3.2 1-1.4 2-2.8 2.8-4.3 0-.2-.2-.3-.3-.2zm1 .9c-1.1 1.2-1.9 2.8-2.6 4.3-.1.3.2.5.4.2.8-1.5 1.8-2.8 2.5-4.3.1-.2-.1-.4-.3-.2zm1.5.3c-1 1.3-1.8 2.8-2.7 4.2-.1.2.1.3.3.2 1.1-1.3 2.2-2.7 2.8-4.2 0-.2-.3-.3-.4-.2zm3.2.4c.1-.2-.1-.4-.3-.2-1.2 1.4-2.2 3-3.5 4.3-.2.2.1.5.3.3 1.3-1.3 2.7-2.8 3.5-4.4zm1.1.6c-1.4 1.8-2.7 3.7-4.1 5.5-.1.2.2.4.3.2 1.6-1.6 3.1-3.5 4.1-5.5.1-.1-.1-.3-.3-.2zm1 1.3c-1.2 1.7-2.3 3.5-3.5 5.1-.2.2.2.5.4.3 1.4-1.6 2.7-3.3 3.5-5.3.1-.2-.2-.3-.4-.1zm.5 1.7c-.9 1.1-1.6 2.5-2.6 3.6-.2.2.1.6.4.4 1-1.1 2.1-2.3 2.6-3.8.1-.2-.2-.4-.4-.2zm1.4.9c-1.1 1.1-2 2.3-2.8 3.7-.2.2.2.4.4.2.9-1.2 1.9-2.4 2.8-3.7 0-.1-.3-.3-.4-.2zm3.1 4.5c.1-.3-.2-.5-.4-.3-.5.4-.9 1-1.3 1.5s-.8 1-1.3 1.5c-.2.3.1.6.4.4.5-.5 1-1 1.4-1.6.5-.4.9-.9 1.2-1.5zm1.2 2.2c-.8.7-1.4 1.5-2.1 2.2-.2.2.1.6.3.3.6-.8 1.4-1.5 2-2.3.3-.2 0-.4-.2-.2zm2.2 1.6c.1-.1-.1-.3-.2-.2-1 .9-1.9 1.9-2.9 2.9-.1.2.1.4.2.2 1-.9 2-1.8 2.9-2.9zm.7 1.6c-1.2 1.2-2.3 2.6-3.3 4-.1.2.2.4.3.3 1.2-1.3 2.3-2.6 3.2-4 .2-.3-.1-.5-.2-.3zm.8.5c-1.2 1.8-2.3 3.8-3.3 5.6-.1.2.2.4.3.2 1.4-1.6 2.7-3.7 3.5-5.7 0-.1-.4-.3-.5-.1zm2.3.1c-1.4 2.2-2.6 4.4-4.1 6.4-.2.2.1.6.3.3 1.7-2 3.3-4.2 4.1-6.6.1-.2-.2-.3-.3-.1zm.1 3.3c.1-.2-.2-.4-.4-.2-1.4 2-2.4 4.2-3.3 6.5-.1.2.2.3.4.2 1.1-2.2 2.4-4.3 3.3-6.5zm.3 1.4c-1.3 2.3-2.4 4.8-3.7 7.1-.1.2.2.4.4.2 1.4-2.3 2.8-4.6 3.6-7.2.1-.1-.2-.3-.3-.1zm.7 1.8c-1.1 2.2-2.1 4.5-3.2 6.8-.1.2.2.4.4.2 1.2-2.2 2.4-4.4 3.2-6.8-.1-.3-.3-.4-.4-.2zm.6 2.2c-1.1 2.3-2.1 4.6-3.2 6.9-.1.2.1.3.2.1 1.4-2.1 2.6-4.5 3.3-6.9.1-.2-.2-.3-.3-.1zm0 3c-1.1 1.9-1.9 4.2-2.7 6.2-.1.2.3.4.4.2 1-2 2.1-4.1 2.8-6.2.1-.3-.3-.5-.5-.2zm.9 1.4c-1.2 2.3-2.1 4.8-2.9 7.2-.1.3.3.4.4.2 1.1-2.3 2.2-4.8 2.9-7.2.1-.2-.3-.4-.4-.2zm.2 4.3c-.4 1.8-.9 3.4-1.7 5.1-.1.3.3.5.4.2.8-1.7 1.5-3.4 1.6-5.3 0-.2-.3-.2-.3 0zm-67.1-27c.1 1.7.7 3.2 1.4 4.7.1.2.5.1.4-.2-.5-1.5-.9-3.1-1.4-4.6-.1-.1-.4-.1-.4.1zm-.8 1c.3 1.7.8 3.3 1.3 5 .1.3.5.2.4-.1-.4-1.7-.7-3.4-1.3-5-.2-.3-.5-.2-.4.1zm-3.5 10c-.2-.5-.4-1.1-.7-1.6-.2-.2-.5-.1-.4.2.2 1.1 1 2.2 1.6 3.1.1.2.5 0 .3-.2-.3-.5-.6-1-.8-1.5zm-6.7 8.3c-.1-.2-.4-.1-.3.1.6 2.1 1.4 4.1 2.5 6 .2.3.7 0 .5-.3-.9-1.9-1.8-3.9-2.7-5.8zm.2 3.1c-.1-.2-.4-.1-.3.1.6 2 1.4 4 2.2 5.9.1.3.6.2.5-.1-.8-2-1.5-4-2.4-5.9zm-1.4 1.3c0-.1-.2 0-.2.1.8 2.2 1.7 4.3 3 6.3.1.2.5 0 .3-.2-1.1-2.1-2.2-4.1-3.1-6.2zm1.5 7.3c0-.4-.1-.8-.2-1.1 0-.1-.2-.1-.2 0v.2c-.3-.6-.5-1.1-.9-1.6-.1-.1-.3-.1-.3.1.3.9.7 1.7 1.2 2.5 0 .7.1 1.3.1 1.9 0 .3.5.3.4 0 0-.3 0-.7-.1-1 0 .1.1.2.1.2.1.2.4 0 .3-.2-.1-.2-.2-.6-.4-1zM81.3 61c-.3-2.9-.5-5.9-.9-8.8 0-.3-.4-.3-.5 0-.2 3.5.2 7.2 1 10.6.1.3.5.2.5 0 .1.1.3 0 .2-.2 0-.6-.1-1.1-.3-1.6zm9.5-6.4c0-.2-.4-.2-.4 0-.2 2-.1 4 0 6 0 .3.5.3.5 0 0-2 .1-4-.1-6zm-1.7 2c0 1.7.1 3.3 0 5 0 .2.4.2.4 0 0-1.7 0-3.3-.2-5 0-.1-.2-.2-.2 0zm-2.5 2c0 1.2.3 2.3.5 3.5 0 .2.4.1.3-.1-.2-1.1-.3-2.3-.6-3.4.1-.2-.2-.2-.2 0zm10-2.1c-.2 1.4-.2 2.8-.2 4.1 0 .2.3.2.4 0 .1-1.3.3-2.7.2-4.1-.1-.1-.4-.2-.4 0zm9.2-1.2c-.3 1.5-.6 3-1.1 4.4-.1.3.3.4.4.1.5-1.5.9-2.9.9-4.5.1-.1-.2-.1-.2 0zm4.4-.2c-.3 2-.7 3.9-1.1 5.8-.1.2.3.3.3.1.5-2 .8-3.9 1-5.9.1-.1-.2-.1-.2 0z" fill="#161e26" stroke-width="none" opacity="1" stroke="none"></path></g><g id="svga-group-glasses-single-move" transform="matrix(1,0,0,1,0,0)"><g id="svga-group-glasses-single" transform="matrix(1.0000001,0,0,1.0000001,-0.000009997777951298303,-0.000009954891595498339)"><path id="SvgjsPath10037" d="M65.9 91.4c-1 .9-.6 5.1.1 8.8s1.3 6.1 3.7 7.1 8.8 1.9 15.5 1.2c6.7-.7 7.1-2.5 7.9-3.8.9-1.3 3.4-8.5 3.5-10.3S93.8 92 92 91.7s-11.3-1.1-16.2-1.4c-4.8-.4-8.6-.1-9.9 1.1z" fill="url(#SvgjsLinearGradient10038)" opacity="1"></path><path id="SvgjsPath10042" d="M134.1 91.4c1 .9.6 5.1-.1 8.8s-1.3 6.1-3.6 7.1c-2.4 1-8.8 1.9-15.5 1.2-6.7-.7-7.1-2.5-7.9-3.8-.9-1.3-3.4-8.5-3.5-10.3s2.9-2.5 4.7-2.8 11.3-1.1 16.2-1.4c4.6-.3 8.4 0 9.7 1.2z" fill="url(#SvgjsLinearGradient10043)" opacity="1"></path><path id="SvgjsPath10047" d="M136.6 90.5c-.6-.5-3.6-.7-7.3-.9-3.6-.2-14.3.1-20.6 1.1-3.6.6-6.6 1.3-7.9 1.3h-1.4c-1.4 0-4.3-.7-7.9-1.3-6.3-1.1-17.1-1.3-20.6-1.1-3.7.2-6.7.3-7.3.9-.7.5 0 3.8.3 4.5s.6.6.9 1 .8 5.7 1.6 8.3c.8 2.7 2 4.3 9.2 4.9 7.2.6 13.6-.3 15.9-1.4 2.4-1.1 4.1-5.8 4.6-7.3.4-1.5 1-3.1 1.4-3.9.4-.8 2-1.3 2-1.3h1.4s1.6.6 2 1.3c.4.8.9 2.4 1.4 3.9.4 1.5 2.2 6.2 4.6 7.3 2.4 1.1 8.7 2 15.9 1.4s8.4-2.3 9.2-4.9 1.3-7.9 1.6-8.3c.3-.4.6-.3.9-1 .1-.7.7-4 .1-4.5zm-41.1 6c-.9 4.1-2.9 8.7-4.3 9.8-2.1 1.7-10.8 2.3-15.7 1.7-4.9-.6-7.2-1.3-8.2-4.6s-1.4-8.6-1.2-10.1 1.7-2.4 5.5-2.4 7.4 0 12.2.3 8.4 1 10.2 1.9c1.8.8 1.8 2 1.5 3.4zm37.2 6.9c-1 3.4-3.3 4.1-8.2 4.6-4.9.6-13.6 0-15.7-1.7-1.4-1.1-3.4-5.7-4.3-9.8-.3-1.4-.3-2.6 1.5-3.4 1.8-.8 5.4-1.6 10.2-1.9 4.8-.3 8.4-.3 12.2-.3 3.8 0 5.2.9 5.5 2.4.2 1.6-.2 6.8-1.2 10.1z" fill="#040400" stroke-width="none" opacity="1"></path><path id="SvgjsPath10048" d="M136.6 90.5c-.6-.3-1.3-.4-2-.5-.7-.1-1.4-.1-2-.2-1.4-.1-2.7-.2-4.1-.2-2.7-.1-5.5 0-8.2.2-2.7.1-5.4.3-8.2.6-2.7.3-5.4.8-8.1 1.4-1.3.2-2.7.6-4.1.5-1.4.1-2.8-.2-4.1-.5-2.7-.5-5.3-1.1-8.1-1.4-5.4-.6-10.9-.8-16.3-.8-1.4 0-2.7.1-4.1.2-.7 0-1.4.1-2 .2-.7.1-1.4.1-1.9.4-.2.2-.2.6-.3.9v1c.1.7.2 1.3.3 2 .1.3.2.7.3.9.2.2.6.3.7.7.2.7.3 1.3.4 2 .2 1.3.4 2.7.7 4 .3 1.3.6 2.7 1.2 3.8.7 1.2 1.9 1.9 3.2 2.3 1.3.4 2.6.6 4 .8 2.7.3 5.4.3 8.2.2 2.7-.1 5.4-.4 8-1.2.7-.2 1.2-.4 1.7-.9.5-.4.9-.9 1.3-1.5.8-1.1 1.3-2.3 1.8-3.6.5-1.2.8-2.6 1.3-3.9.1-.3.2-.7.4-1 .1-.3.2-.7.5-1 .6-.5 1.2-.8 1.9-1.1h1.4c.6.2 1.1.5 1.7.9.2.2.5.5.6.8.1.3.2.6.3.8.4 1.1.8 2.3 1.1 3.4.4 1.1.8 2.2 1.4 3.2.6 1 1.2 2 2.1 2.8.8.7 2.1 1 3.2 1.3 1.2.2 2.3.4 3.5.6 2.4.3 4.7.4 7.1.3 2.4-.1 4.8-.2 7.1-.7 1.1-.3 2.3-.7 3.2-1.4.9-.7 1.4-1.9 1.8-3 .6-2.3.9-4.7 1.3-7 .1-.3.1-.6.2-.9.1-.3.4-.5.6-.7.5-.4.5-1 .7-1.6l.3-1.8c.2-.2.3-.9 0-1.3zm0-.1c.2.2.2.6.3.8v.9c0 .6-.1 1.2-.2 1.8-.1.3-.1.6-.2.9-.1.3-.2.6-.5.8-.2.2-.5.3-.6.6-.1.3-.1.6-.2.9-.4 2.3-.6 4.7-1.3 7.1-.3 1.1-.8 2.3-1.8 3.1-1 .8-2.1 1.2-3.3 1.5-2.3.6-4.8.7-7.1.8-2.4.1-4.8 0-7.2-.2-1.2-.1-2.4-.3-3.6-.6-.6-.1-1.2-.3-1.8-.5-.6-.2-1.2-.5-1.6-.9-.9-.8-1.6-1.9-2.2-2.9-.6-1.1-1-2.2-1.4-3.3-.4-1.2-.7-2.3-1.1-3.4-.1-.3-.2-.6-.3-.8-.1-.3-.2-.4-.5-.6-.4-.3-1-.6-1.5-.8h.1-1.4.1c-.6.2-1.2.5-1.7.9-.2.2-.3.5-.4.8l-.3.9c-.5 1.3-.8 2.6-1.3 3.9-.5 1.3-1.1 2.5-1.9 3.7-.4.6-.8 1.1-1.4 1.6-.5.5-1.2.8-1.9 1-2.7.8-5.4 1-8.1 1.2-2.7.1-5.5 0-8.2-.3-1.4-.2-2.7-.4-4-.8-1.3-.4-2.6-1.2-3.3-2.4-.7-1.2-1-2.6-1.2-3.9-.3-1.3-.4-2.7-.7-4.1-.1-.7-.2-1.4-.4-2-.1-.3-.5-.4-.7-.7-.2-.3-.3-.7-.4-1-.2-.7-.3-1.3-.3-2 0-.3-.1-.7 0-1 0-.3 0-.7.3-1 .6-.4 1.3-.4 2-.5.7-.1 1.4-.1 2-.2 1.4-.1 2.7-.2 4.1-.2 5.5-.1 10.9.1 16.4.6 2.7.3 5.4.8 8.1 1.3 2.7.6 5.3.6 8 0 2.7-.5 5.4-1 8.1-1.3 2.7-.3 5.4-.4 8.2-.5 2.7-.1 5.5-.2 8.2-.1 1.4.1 2.7.1 4.1.2.7.1 1.4.1 2 .2.7.2 1.4.2 2 .5zm-41.1 6.1c-.3 1.6-.8 3.2-1.4 4.8-.6 1.6-1.2 3.1-2.2 4.5-.5.7-1.4 1.2-2.2 1.4-.8.3-1.6.5-2.5.6-1.7.3-3.3.4-5 .5-3.4.1-6.8-.1-10-.8-1.6-.3-3.3-1-4.3-2.5-.5-.7-.7-1.6-.9-2.4-.2-.8-.4-1.6-.5-2.5-.3-1.7-.5-3.3-.6-5 0-.8-.1-1.7.2-2.6.4-.9 1.2-1.4 2.1-1.6 1.7-.5 3.4-.4 5.1-.4l5 .1c1.7.1 3.4.1 5 .2 1.7.1 3.4.3 5 .5 1.7.3 3.3.6 4.9 1.2.8.3 1.6.6 2.1 1.4.5.9.4 1.8.2 2.6zm-.1 0c.2-.8.3-1.7-.2-2.4s-1.3-1-2.1-1.3c-1.6-.5-3.2-.8-4.9-1-3.3-.5-6.7-.4-10-.5l-5-.1c-1.7-.1-3.4-.1-4.9.3-.8.2-1.5.7-1.8 1.3-.3.7-.2 1.6-.2 2.4 0 1.7.2 3.3.5 5 .1.8.3 1.7.5 2.5s.4 1.6.9 2.3c.4.7 1.1 1.3 1.8 1.7.7.4 1.5.6 2.3.8 3.3.7 6.7.7 10 .5 1.7-.1 3.3-.3 5-.5.8-.1 1.6-.3 2.4-.6.8-.2 1.5-.6 2-1.2 1-1.3 1.7-2.8 2.3-4.4.6-1.5 1.1-3.1 1.4-4.8zm37.3 7c-.2.8-.6 1.6-1.1 2.2-.6.7-1.3 1.1-2.1 1.4-1.6.6-3.3.9-4.9 1.1-3.3.4-6.7.3-10.1-.1-1.7-.2-3.3-.5-4.9-1.2-.4-.2-.8-.4-1.1-.7-.3-.3-.6-.7-.8-1-.4-.7-.8-1.5-1.2-2.2-.7-1.5-1.2-3.1-1.7-4.7-.2-.8-.5-1.6-.6-2.5-.1-.4-.1-.9.1-1.3.1-.4.4-.8.8-1.1.7-.5 1.5-.8 2.3-1.1.8-.2 1.6-.4 2.5-.6 1.7-.3 3.3-.6 5-.7 3.4-.2 6.7-.2 10.1-.3l2.5-.1c.8 0 1.7 0 2.5.1.9.1 1.7.2 2.5.6.4.2.8.5 1 .8.3.4.4.8.5 1.2.1 1.7-.1 3.4-.3 5.1-.2 1.8-.5 3.4-1 5.1zm0-.1c.4-1.6.7-3.3.9-4.9.2-1.7.3-3.4.1-5-.1-.8-.6-1.5-1.4-1.8-.7-.3-1.6-.5-2.4-.5-1.6-.1-3.3 0-5 0l-5 .1c-1.7.1-3.4 0-5 .2-1.7.1-3.3.3-5 .6-.8.2-1.6.3-2.4.6-.8.2-1.6.5-2.2 1-.7.5-.9 1.3-.8 2.1.1.8.3 1.6.5 2.4.4 1.6 1 3.2 1.7 4.7.3.8.7 1.5 1.2 2.2.2.3.5.7.8 1 .3.3.7.5 1 .6 1.5.6 3.2.8 4.9 1 3.3.3 6.7.4 10 .2 1.7-.2 3.3-.3 4.9-.9.8-.3 1.5-.8 2.1-1.4.5-.6.8-1.4 1.1-2.2z" fill="#000000" stroke-width="none" opacity="1"></path></g></g></g></g></g><rect id="svga-credit-rect" width="200" height="15" x="0" y="185" fill="#ecf0f1" opacity="0.5" style="display: none;"></rect><text id="svga-credit-text" font-family="Avenir Next, Roboto, Helvetica, Arial, sans-serif" font-size="10px" text-anchor="start" font-weight="400" size="10px" anchor="start" weight="400" fill="#333333" x="33.40447998046875" y="182.60824704170227" style="display: none;"><tspan id="SvgjsTspan4433" dy="13" x="33.40447998046875">Created on AvatarMaker.com</tspan></text></g><defs id="SvgjsDefs4385"><linearGradient id="SvgjsLinearGradient7696" x1="81.0335" y1="111.8772" x2="81.0335" y2="93.2499" gradientTransform="matrix(1 0 0 -1 0 202)" gradientUnits="userSpaceOnUse" class="svga-on-canvas-glasses-gradient-single-0-null"><stop id="SvgjsStop7697" stop-opacity="1" stop-color="#bfeaf2" offset="0" ></stop><stop id="SvgjsStop7698" stop-opacity="0.649" stop-color="#a1cae3" offset="0.351" ></stop><stop id="SvgjsStop7699" stop-opacity="0" stop-color="#6086c4" offset="1" ></stop></linearGradient><linearGradient id="SvgjsLinearGradient7701" x1="-1736.9666" y1="111.8772" x2="-1736.9666" y2="93.2499" gradientTransform="matrix(-1 0 0 -1 -1618 202)" gradientUnits="userSpaceOnUse" class="svga-on-canvas-glasses-gradient-single-1-null"><stop id="SvgjsStop7702" stop-opacity="1" stop-color="#bfeaf2" offset="0" ></stop><stop id="SvgjsStop7703" stop-opacity="0.649" stop-color="#a1cae3" offset="0.351" ></stop><stop id="SvgjsStop7704" stop-opacity="0" stop-color="#6086c4" offset="1" ></stop></linearGradient><linearGradient id="SvgjsLinearGradient7753" x1="81.2869" y1="113.6762" x2="81.2869" y2="89.427" gradientTransform="matrix(1 0 0 -1 0 202)" gradientUnits="userSpaceOnUse" class="svga-on-canvas-glasses-gradient-single-0-null"><stop id="SvgjsStop7754" stop-opacity="1" stop-color="#3d2d1c" offset="0.0208" ></stop><stop id="SvgjsStop7755" stop-opacity="0.6291" stop-color="#402e1c" offset="0.3825" ></stop><stop id="SvgjsStop7756" stop-opacity="0.3897" stop-color="#48321d" offset="0.6159" ></stop><stop id="SvgjsStop7757" stop-opacity="0.1881" stop-color="#57381f" offset="0.8124" ></stop><stop id="SvgjsStop7758" stop-opacity="7.593334e-03" stop-color="#6c4221" offset="0.9884" ></stop><stop id="SvgjsStop7759" stop-opacity="0" stop-color="#6d4221" offset="0.9958" ></stop></linearGradient><linearGradient id="SvgjsLinearGradient7761" x1="-1736.4185" y1="113.6762" x2="-1736.4185" y2="89.427" gradientTransform="matrix(-1 0 0 -1 -1617.7053 202)" gradientUnits="userSpaceOnUse" class="svga-on-canvas-glasses-gradient-single-1-null"><stop id="SvgjsStop7762" stop-opacity="1" stop-color="#3d2d1c" offset="0.0208" ></stop><stop id="SvgjsStop7763" stop-opacity="0.6291" stop-color="#402e1c" offset="0.3825" ></stop><stop id="SvgjsStop7764" stop-opacity="0.3897" stop-color="#48321d" offset="0.6159" ></stop><stop id="SvgjsStop7765" stop-opacity="0.1881" stop-color="#57381f" offset="0.8124" ></stop><stop id="SvgjsStop7766" stop-opacity="7.593334e-03" stop-color="#6c4221" offset="0.9884" ></stop><stop id="SvgjsStop7767" stop-opacity="0" stop-color="#6d4221" offset="0.9958" ></stop></linearGradient><linearGradient id="SvgjsLinearGradient7835" x1="81.0335" y1="111.8772" x2="81.0335" y2="93.2499" gradientTransform="matrix(1 0 0 -1 0 202)" gradientUnits="userSpaceOnUse" class="svga-on-canvas-glasses-gradient-single-0-null"><stop id="SvgjsStop7836" stop-opacity="1" stop-color="#bfeaf2" offset="0" ></stop><stop id="SvgjsStop7837" stop-opacity="0.649" stop-color="#a1cae3" offset="0.351" ></stop><stop id="SvgjsStop7838" stop-opacity="0" stop-color="#6086c4" offset="1" ></stop></linearGradient><linearGradient id="SvgjsLinearGradient7840" x1="-1736.9666" y1="111.8772" x2="-1736.9666" y2="93.2499" gradientTransform="matrix(-1 0 0 -1 -1618 202)" gradientUnits="userSpaceOnUse" class="svga-on-canvas-glasses-gradient-single-1-null"><stop id="SvgjsStop7841" stop-opacity="1" stop-color="#bfeaf2" offset="0" ></stop><stop id="SvgjsStop7842" stop-opacity="0.649" stop-color="#a1cae3" offset="0.351" ></stop><stop id="SvgjsStop7843" stop-opacity="0" stop-color="#6086c4" offset="1" ></stop></linearGradient><linearGradient id="SvgjsLinearGradient7892" x1="81.9825" y1="87.8318" x2="81.9825" y2="111.9101" gradientUnits="userSpaceOnUse" class="svga-on-canvas-glasses-gradient-single-0-null"><stop id="SvgjsStop7893" stop-opacity="1" stop-color="#9ab4d3" offset="0" ></stop><stop id="SvgjsStop7894" stop-opacity="0.7593" stop-color="#93aed1" offset="0.2407" ></stop><stop id="SvgjsStop7895" stop-opacity="0.4009" stop-color="#7e9ecc" offset="0.5991" ></stop><stop id="SvgjsStop7896" stop-opacity="0" stop-color="#6086c4" offset="1" ></stop></linearGradient><linearGradient id="SvgjsLinearGradient7898" x1="-18.0175" y1="87.8318" x2="-18.0175" y2="111.9101" gradientTransform="matrix(-1 0 0 1 100 0)" gradientUnits="userSpaceOnUse" class="svga-on-canvas-glasses-gradient-single-1-null"><stop id="SvgjsStop7899" stop-opacity="1" stop-color="#9ab4d3" offset="0" ></stop><stop id="SvgjsStop7900" stop-opacity="0.7593" stop-color="#93aed1" offset="0.2407" ></stop><stop id="SvgjsStop7901" stop-opacity="0.4009" stop-color="#7e9ecc" offset="0.5991" ></stop><stop id="SvgjsStop7902" stop-opacity="0" stop-color="#6086c4" offset="1" ></stop></linearGradient><linearGradient id="SvgjsLinearGradient7956" x1="81.0729" y1="112.2763" x2="81.0729" y2="92.4328" gradientTransform="matrix(1 0 0 -1 0 202)" gradientUnits="userSpaceOnUse" class="svga-on-canvas-glasses-gradient-single-0-null"><stop id="SvgjsStop7957" stop-opacity="1" stop-color="#97a1ad" offset="0" ></stop><stop id="SvgjsStop7958" stop-opacity="0.6667" stop-color="#889ab3" offset="0.3333" ></stop><stop id="SvgjsStop7959" stop-opacity="3.130000e-02" stop-color="#6287c3" offset="0.9687" ></stop><stop id="SvgjsStop7960" stop-opacity="0" stop-color="#6086c4" offset="1" ></stop></linearGradient><linearGradient id="SvgjsLinearGradient7962" x1="-1736.927" y1="112.2763" x2="-1736.927" y2="92.4328" gradientTransform="matrix(-1 0 0 -1 -1618 202)" gradientUnits="userSpaceOnUse" class="svga-on-canvas-glasses-gradient-single-1-null"><stop id="SvgjsStop7963" stop-opacity="1" stop-color="#97a1ad" offset="0" ></stop><stop id="SvgjsStop7964" stop-opacity="0.6667" stop-color="#889ab3" offset="0.3333" ></stop><stop id="SvgjsStop7965" stop-opacity="3.130000e-02" stop-color="#6287c3" offset="0.9687" ></stop><stop id="SvgjsStop7966" stop-opacity="0" stop-color="#6086c4" offset="1" ></stop></linearGradient><linearGradient id="SvgjsLinearGradient8022" x1="118.8" y1="82.84" x2="118.8" y2="112.98" gradientUnits="userSpaceOnUse" class="svga-on-canvas-glasses-gradient-single-0-null"><stop id="SvgjsStop8023" stop-opacity="1" stop-color="#b4c0cf" offset="0" ></stop><stop id="SvgjsStop8024" stop-opacity="0.9374" stop-color="#abbace" offset="0.0626" ></stop><stop id="SvgjsStop8025" stop-opacity="0.679" stop-color="#8aa3ca" offset="0.321" ></stop><stop id="SvgjsStop8026" stop-opacity="0.4305" stop-color="#7393c6" offset="0.5695" ></stop><stop id="SvgjsStop8027" stop-opacity="0.1987" stop-color="#6589c5" offset="0.8013" ></stop><stop id="SvgjsStop8028" stop-opacity="0" stop-color="#6086c4" offset="1" ></stop></linearGradient><linearGradient id="SvgjsLinearGradient8030" x1="81.2" y1="82.84" x2="81.2" y2="112.98" gradientUnits="userSpaceOnUse" class="svga-on-canvas-glasses-gradient-single-1-null"><stop id="SvgjsStop8031" stop-opacity="1" stop-color="#b4c0cf" offset="0" ></stop><stop id="SvgjsStop8032" stop-opacity="0.9374" stop-color="#abbace" offset="0.0626" ></stop><stop id="SvgjsStop8033" stop-opacity="0.679" stop-color="#8aa3ca" offset="0.321" ></stop><stop id="SvgjsStop8034" stop-opacity="0.4305" stop-color="#7393c6" offset="0.5695" ></stop><stop id="SvgjsStop8035" stop-opacity="0.1987" stop-color="#6589c5" offset="0.8013" ></stop><stop id="SvgjsStop8036" stop-opacity="0" stop-color="#6086c4" offset="1" ></stop></linearGradient><linearGradient id="SvgjsLinearGradient8102" x1="81.0335" y1="111.8772" x2="81.0335" y2="93.2499" gradientTransform="matrix(1 0 0 -1 0 202)" gradientUnits="userSpaceOnUse" class="svga-on-canvas-glasses-gradient-single-0-null"><stop id="SvgjsStop8103" stop-opacity="1" stop-color="#bfeaf2" offset="0" ></stop><stop id="SvgjsStop8104" stop-opacity="0.649" stop-color="#a1cae3" offset="0.351" ></stop><stop id="SvgjsStop8105" stop-opacity="0" stop-color="#6086c4" offset="1" ></stop></linearGradient><linearGradient id="SvgjsLinearGradient8107" x1="-1736.9666" y1="111.8772" x2="-1736.9666" y2="93.2499" gradientTransform="matrix(-1 0 0 -1 -1618 202)" gradientUnits="userSpaceOnUse" class="svga-on-canvas-glasses-gradient-single-1-null"><stop id="SvgjsStop8108" stop-opacity="1" stop-color="#bfeaf2" offset="0" ></stop><stop id="SvgjsStop8109" stop-opacity="0.649" stop-color="#a1cae3" offset="0.351" ></stop><stop id="SvgjsStop8110" stop-opacity="0" stop-color="#6086c4" offset="1" ></stop></linearGradient><linearGradient id="SvgjsLinearGradient8188" x1="81.0335" y1="111.8772" x2="81.0335" y2="93.2499" gradientTransform="matrix(1 0 0 -1 0 202)" gradientUnits="userSpaceOnUse" class="svga-on-canvas-glasses-gradient-single-0-null"><stop id="SvgjsStop8189" stop-opacity="1" stop-color="#bfeaf2" offset="0" ></stop><stop id="SvgjsStop8190" stop-opacity="0.649" stop-color="#a1cae3" offset="0.351" ></stop><stop id="SvgjsStop8191" stop-opacity="0" stop-color="#6086c4" offset="1" ></stop></linearGradient><linearGradient id="SvgjsLinearGradient8193" x1="-1736.9666" y1="111.8772" x2="-1736.9666" y2="93.2499" gradientTransform="matrix(-1 0 0 -1 -1618 202)" gradientUnits="userSpaceOnUse" class="svga-on-canvas-glasses-gradient-single-1-null"><stop id="SvgjsStop8194" stop-opacity="1" stop-color="#bfeaf2" offset="0" ></stop><stop id="SvgjsStop8195" stop-opacity="0.649" stop-color="#a1cae3" offset="0.351" ></stop><stop id="SvgjsStop8196" stop-opacity="0" stop-color="#6086c4" offset="1" ></stop></linearGradient><linearGradient id="SvgjsLinearGradient9682" x1="81.0729" y1="112.2763" x2="81.0729" y2="92.4328" gradientTransform="matrix(1 0 0 -1 0 202)" gradientUnits="userSpaceOnUse" class="svga-on-canvas-glasses-gradient-single-0-null"><stop id="SvgjsStop9683" stop-opacity="1" stop-color="#97a1ad" offset="0" ></stop><stop id="SvgjsStop9684" stop-opacity="0.6667" stop-color="#889ab3" offset="0.3333" ></stop><stop id="SvgjsStop9685" stop-opacity="3.130000e-02" stop-color="#6287c3" offset="0.9687" ></stop><stop id="SvgjsStop9686" stop-opacity="0" stop-color="#6086c4" offset="1" ></stop></linearGradient><linearGradient id="SvgjsLinearGradient9688" x1="-1736.927" y1="112.2763" x2="-1736.927" y2="92.4328" gradientTransform="matrix(-1 0 0 -1 -1618 202)" gradientUnits="userSpaceOnUse" class="svga-on-canvas-glasses-gradient-single-1-null"><stop id="SvgjsStop9689" stop-opacity="1" stop-color="#97a1ad" offset="0" ></stop><stop id="SvgjsStop9690" stop-opacity="0.6667" stop-color="#889ab3" offset="0.3333" ></stop><stop id="SvgjsStop9691" stop-opacity="3.130000e-02" stop-color="#6287c3" offset="0.9687" ></stop><stop id="SvgjsStop9692" stop-opacity="0" stop-color="#6086c4" offset="1" ></stop></linearGradient><linearGradient id="SvgjsLinearGradient9748" x1="81.9825" y1="87.8318" x2="81.9825" y2="111.9101" gradientUnits="userSpaceOnUse" class="svga-on-canvas-glasses-gradient-single-0-null"><stop id="SvgjsStop9749" stop-opacity="1" stop-color="#9ab4d3" offset="0" ></stop><stop id="SvgjsStop9750" stop-opacity="0.7593" stop-color="#93aed1" offset="0.2407" ></stop><stop id="SvgjsStop9751" stop-opacity="0.4009" stop-color="#7e9ecc" offset="0.5991" ></stop><stop id="SvgjsStop9752" stop-opacity="0" stop-color="#6086c4" offset="1" ></stop></linearGradient><linearGradient id="SvgjsLinearGradient9754" x1="-18.0175" y1="87.8318" x2="-18.0175" y2="111.9101" gradientTransform="matrix(-1 0 0 1 100 0)" gradientUnits="userSpaceOnUse" class="svga-on-canvas-glasses-gradient-single-1-null"><stop id="SvgjsStop9755" stop-opacity="1" stop-color="#9ab4d3" offset="0" ></stop><stop id="SvgjsStop9756" stop-opacity="0.7593" stop-color="#93aed1" offset="0.2407" ></stop><stop id="SvgjsStop9757" stop-opacity="0.4009" stop-color="#7e9ecc" offset="0.5991" ></stop><stop id="SvgjsStop9758" stop-opacity="0" stop-color="#6086c4" offset="1" ></stop></linearGradient><linearGradient id="SvgjsLinearGradient9812" x1="81.0335" y1="111.8772" x2="81.0335" y2="93.2499" gradientTransform="matrix(1 0 0 -1 0 202)" gradientUnits="userSpaceOnUse" class="svga-on-canvas-glasses-gradient-single-0-null"><stop id="SvgjsStop9813" stop-opacity="1" stop-color="#bfeaf2" offset="0" ></stop><stop id="SvgjsStop9814" stop-opacity="0.649" stop-color="#a1cae3" offset="0.351" ></stop><stop id="SvgjsStop9815" stop-opacity="0" stop-color="#6086c4" offset="1" ></stop></linearGradient><linearGradient id="SvgjsLinearGradient9817" x1="-1736.9666" y1="111.8772" x2="-1736.9666" y2="93.2499" gradientTransform="matrix(-1 0 0 -1 -1618 202)" gradientUnits="userSpaceOnUse" class="svga-on-canvas-glasses-gradient-single-1-null"><stop id="SvgjsStop9818" stop-opacity="1" stop-color="#bfeaf2" offset="0" ></stop><stop id="SvgjsStop9819" stop-opacity="0.649" stop-color="#a1cae3" offset="0.351" ></stop><stop id="SvgjsStop9820" stop-opacity="0" stop-color="#6086c4" offset="1" ></stop></linearGradient><linearGradient id="SvgjsLinearGradient9869" x1="82.14" y1="87.906" x2="82.14" y2="109.3074" gradientUnits="userSpaceOnUse" class="svga-on-canvas-glasses-gradient-single-0-null"><stop id="SvgjsStop9870" stop-opacity="1" stop-color="#9bc2cf" offset="0" ></stop><stop id="SvgjsStop9871" stop-opacity="0" stop-color="#6086c4" offset="1" ></stop></linearGradient><linearGradient id="SvgjsLinearGradient9873" x1="-17.86" y1="87.906" x2="-17.86" y2="109.3074" gradientTransform="matrix(-1 0 0 1 100 0)" gradientUnits="userSpaceOnUse" class="svga-on-canvas-glasses-gradient-single-1-null"><stop id="SvgjsStop9874" stop-opacity="1" stop-color="#9bc2cf" offset="0" ></stop><stop id="SvgjsStop9875" stop-opacity="0" stop-color="#6086c4" offset="1" ></stop></linearGradient><linearGradient id="SvgjsLinearGradient9917" x1="81.0335" y1="111.8772" x2="81.0335" y2="93.2499" gradientTransform="matrix(1 0 0 -1 0 202)" gradientUnits="userSpaceOnUse" class="svga-on-canvas-glasses-gradient-single-0-null"><stop id="SvgjsStop9918" stop-opacity="1" stop-color="#bfeaf2" offset="0" ></stop><stop id="SvgjsStop9919" stop-opacity="0.649" stop-color="#a1cae3" offset="0.351" ></stop><stop id="SvgjsStop9920" stop-opacity="0" stop-color="#6086c4" offset="1" ></stop></linearGradient><linearGradient id="SvgjsLinearGradient9922" x1="-1736.9666" y1="111.8772" x2="-1736.9666" y2="93.2499" gradientTransform="matrix(-1 0 0 -1 -1618 202)" gradientUnits="userSpaceOnUse" class="svga-on-canvas-glasses-gradient-single-1-null"><stop id="SvgjsStop9923" stop-opacity="1" stop-color="#bfeaf2" offset="0" ></stop><stop id="SvgjsStop9924" stop-opacity="0.649" stop-color="#a1cae3" offset="0.351" ></stop><stop id="SvgjsStop9925" stop-opacity="0" stop-color="#6086c4" offset="1" ></stop></linearGradient><linearGradient id="SvgjsLinearGradient9974" x1="80.965" y1="115.5409" x2="80.965" y2="91.2475" gradientTransform="matrix(1 0 0 -1 0 202)" gradientUnits="userSpaceOnUse" class="svga-on-canvas-glasses-gradient-single-0-null"><stop id="SvgjsStop9975" stop-opacity="1" stop-color="#899ba1" offset="0" ></stop><stop id="SvgjsStop9976" stop-opacity="0.6554" stop-color="#7490b3" offset="0.3446" ></stop><stop id="SvgjsStop9977" stop-opacity="0.2966" stop-color="#6589c0" offset="0.7034" ></stop><stop id="SvgjsStop9978" stop-opacity="0" stop-color="#6086c4" offset="1" ></stop></linearGradient><linearGradient id="SvgjsLinearGradient9980" x1="-1737.0349" y1="115.5409" x2="-1737.0349" y2="91.2475" gradientTransform="matrix(-1 0 0 -1 -1618 202)" gradientUnits="userSpaceOnUse" class="svga-on-canvas-glasses-gradient-single-1-null"><stop id="SvgjsStop9981" stop-opacity="1" stop-color="#899ba1" offset="0" ></stop><stop id="SvgjsStop9982" stop-opacity="0.6554" stop-color="#7490b3" offset="0.3446" ></stop><stop id="SvgjsStop9983" stop-opacity="0.2966" stop-color="#6589c0" offset="0.7034" ></stop><stop id="SvgjsStop9984" stop-opacity="0" stop-color="#6086c4" offset="1" ></stop></linearGradient><linearGradient id="SvgjsLinearGradient10038" x1="81.0335" y1="111.8772" x2="81.0335" y2="93.2499" gradientTransform="matrix(1 0 0 -1 0 202)" gradientUnits="userSpaceOnUse" class="svga-on-canvas-glasses-gradient-single-0-null"><stop id="SvgjsStop10039" stop-opacity="1" stop-color="#bfeaf2" offset="0" ></stop><stop id="SvgjsStop10040" stop-opacity="0.649" stop-color="#a1cae3" offset="0.351" ></stop><stop id="SvgjsStop10041" stop-opacity="0" stop-color="#6086c4" offset="1" ></stop></linearGradient><linearGradient id="SvgjsLinearGradient10043" x1="-1736.9666" y1="111.8772" x2="-1736.9666" y2="93.2499" gradientTransform="matrix(-1 0 0 -1 -1618 202)" gradientUnits="userSpaceOnUse" class="svga-on-canvas-glasses-gradient-single-1-null"><stop id="SvgjsStop10044" stop-opacity="1" stop-color="#bfeaf2" offset="0" ></stop><stop id="SvgjsStop10045" stop-opacity="0.649" stop-color="#a1cae3" offset="0.351" ></stop><stop id="SvgjsStop10046" stop-opacity="0" stop-color="#6086c4" offset="1" ></stop></linearGradient></defs></svg>